<?xml version="1.0" standalone="no"?>
<!DOCTYPE svg PUBLIC "-//W3C//DTD SVG 1.1//EN" "http://www.w3.org/Graphics/SVG/1.1/DTD/svg11.dtd" >
<svg>
<metadata>
Created by FontForge 20110222 at Tue Mar  8 16:41:38 2011
 By www-data
Copyright (c) 2007 by Jan Filipek. All rights reserved.
</metadata>
<defs>
<font id="DezenProRegular" horiz-adv-x="196" >
  <font-face 
    font-family="Dezen Pro Regular"
    font-weight="400"
    font-stretch="condensed"
    units-per-em="1000"
    panose-1="2 1 0 6 4 0 0 0 0 3"
    ascent="750"
    descent="-250"
    x-height="508"
    cap-height="703"
    bbox="-61 -205 877 894"
    underline-thickness="50"
    underline-position="-50"
    stemh="190"
    stemv="205"
    unicode-range="U+0020-2122"
  />
    <missing-glyph />
    <glyph glyph-name="space" unicode=" " horiz-adv-x="194" 
 />
    <glyph glyph-name="nbspace" unicode="&#xa0;" horiz-adv-x="194" 
 />
    <glyph glyph-name="A" unicode="A" horiz-adv-x="486" 
d="M400 0l-51 187h-217l-52 -187h-85l197 703h104l194 -703h-90zM241 599l-89 -334h177z" />
    <glyph glyph-name="B" unicode="B" horiz-adv-x="521" 
d="M54 0v703h230c99 0 179 -80 179 -179v-27c0 -55 -33 -115 -76 -141c58 -24 96 -86 96 -150v-28c0 -99 -79 -178 -177 -178h-252zM140 388h133c56 0 102 46 102 102v32c0 55 -46 102 -103 102h-132v-236zM140 79h151c56 0 100 46 100 102v31c0 56 -43 103 -108 103h-143
v-236z" />
    <glyph glyph-name="C" unicode="C" horiz-adv-x="519" 
d="M394 266h87v-77c0 -110 -89 -199 -199 -199h-43c-109 0 -199 89 -199 199v325c0 110 90 199 199 199h43c110 0 199 -89 199 -199v-77h-87v75c0 66 -53 120 -119 120h-29c-65 0 -118 -54 -118 -120v-321c0 -66 53 -120 118 -120h29c66 0 119 54 119 120v75z" />
    <glyph glyph-name="D" unicode="D" horiz-adv-x="533" 
d="M492 199c0 -110 -89 -199 -199 -199h-239v703h239c110 0 199 -89 199 -199v-305zM142 624v-545h144c65 0 118 56 118 122v301c0 65 -53 122 -118 122h-144z" />
    <glyph glyph-name="E" unicode="E" horiz-adv-x="435" 
d="M54 0v703h349v-79h-261v-233h249v-79h-249v-233h261v-79h-349z" />
    <glyph glyph-name="F" unicode="F" horiz-adv-x="408" 
d="M54 0v703h342v-79h-254v-234h242v-79h-242v-311h-88z" />
    <glyph glyph-name="G" unicode="G" horiz-adv-x="527" 
d="M487 463h-87v49c0 66 -54 120 -119 120h-35c-65 0 -118 -54 -118 -120v-322c0 -66 53 -120 118 -120h38c65 0 118 54 118 120v81h-124v78h210v-160c0 -110 -89 -199 -199 -199h-50c-109 0 -199 89 -199 199v325c0 110 90 199 199 199h48c110 0 200 -89 200 -199v-51z" />
    <glyph glyph-name="H" unicode="H" horiz-adv-x="550" 
d="M54 0v703h88v-312h266v312h87v-703h-87v312h-266v-312h-88z" />
    <glyph glyph-name="I" unicode="I" 
d="M54 0v703h88v-703h-88z" />
    <glyph glyph-name="J" unicode="J" horiz-adv-x="276" 
d="M-7 0v79h35c73 0 111 58 111 121v503h88v-520c0 -103 -73 -183 -181 -183h-53z" />
    <glyph glyph-name="K" unicode="K" horiz-adv-x="496" 
d="M54 0v703h88v-312h100l152 312h93l-166 -346l190 -357h-99l-169 312h-101v-312h-88z" />
    <glyph glyph-name="L" unicode="L" horiz-adv-x="388" 
d="M54 0v703h88v-624h256v-79h-344z" />
    <glyph glyph-name="M" unicode="M" horiz-adv-x="616" 
d="M54 0v703h92l165 -368l163 368h88v-703h-84v530l-159 -355h-20l-161 355v-530h-84z" />
    <glyph glyph-name="N" unicode="N" horiz-adv-x="549" 
d="M54 0v703h82l274 -505v505h84v-703h-67l-289 528v-528h-84z" />
    <glyph glyph-name="O" unicode="O" horiz-adv-x="521" 
d="M40 514c0 110 89 199 199 199h43c109 0 199 -89 199 -199v-325c0 -110 -90 -199 -199 -199h-43c-110 0 -199 89 -199 199v325zM128 512v-321c0 -66 52 -120 118 -120h29c65 0 118 54 118 120v321c0 66 -53 120 -118 120h-29c-66 0 -118 -54 -118 -120z" />
    <glyph glyph-name="P" unicode="P" horiz-adv-x="468" 
d="M54 0v703h217c108 0 195 -87 195 -195v-47c0 -108 -87 -195 -195 -195h-129v-266h-88zM142 345h125c62 0 112 51 112 113v53c0 62 -50 113 -112 113h-125v-279z" />
    <glyph glyph-name="Q" unicode="Q" horiz-adv-x="521" 
d="M217 -142v133c-100 11 -177 95 -177 198v325c0 110 89 199 199 199h43c109 0 199 -89 199 -199v-325c0 -102 -78 -186 -176 -197v-134h-88zM128 512v-321c0 -66 52 -120 118 -120h29c65 0 118 54 118 120v321c0 66 -53 120 -118 120h-29c-66 0 -118 -54 -118 -120z" />
    <glyph glyph-name="R" unicode="R" horiz-adv-x="510" 
d="M406 0l-136 280h-128v-280h-88v703h221c106 0 193 -87 193 -193v-37c0 -70 -41 -141 -109 -174l146 -299h-99zM142 358h127c61 0 110 50 110 111v44c0 62 -49 111 -110 111h-127v-266z" />
    <glyph glyph-name="S" unicode="S" horiz-adv-x="502" 
d="M33 179v46h86v-45c0 -61 48 -111 109 -111h44c67 0 109 51 109 115v19c0 61 -33 111 -123 111h-19c-127 0 -199 90 -199 186v33c0 102 85 180 189 180h49c105 0 181 -85 181 -190v-47h-85v46c0 61 -44 112 -106 112h-34c-59 0 -106 -45 -106 -104v-21
c0 -61 36 -116 123 -116h21c134 0 197 -80 197 -185v-28c0 -105 -76 -190 -186 -190h-63c-105 0 -187 84 -187 189z" />
    <glyph glyph-name="T" unicode="T" horiz-adv-x="417" 
d="M165 0v624h-175v79h437v-79h-175v-624h-87z" />
    <glyph glyph-name="U" unicode="U" horiz-adv-x="534" 
d="M397 703h88v-518c0 -108 -88 -195 -195 -195h-45c-108 0 -196 87 -196 195v518h88v-515c0 -64 51 -116 114 -116h32c64 0 114 52 114 116v515z" />
    <glyph glyph-name="V" unicode="V" horiz-adv-x="474" 
d="M184 0l-185 703h88l152 -581l151 581h85l-185 -703h-106z" />
    <glyph glyph-name="W" unicode="W" horiz-adv-x="745" 
d="M156 0l-130 703h86l103 -578l115 578h91l110 -579l108 579h83l-135 -703h-110l-105 532l-110 -532h-106z" />
    <glyph glyph-name="X" unicode="X" horiz-adv-x="457" 
d="M-1 0l176 351l-175 352h89l139 -277l140 277h89l-176 -351l177 -352h-91l-139 277l-139 -277h-90z" />
    <glyph glyph-name="Y" unicode="Y" horiz-adv-x="450" 
d="M181 0v283l-186 420h87l143 -326l144 326h86l-186 -420v-283h-88z" />
    <glyph glyph-name="Z" unicode="Z" horiz-adv-x="419" 
d="M11 0v68l290 556h-276v79h382v-56l-296 -568h296v-79h-396z" />
    <glyph glyph-name="AE" unicode="&#xc6;" horiz-adv-x="669" 
d="M298 0v194h-153l-72 -194h-85l256 703h393v-79h-255v-233h243v-79h-243v-233h255v-79h-339zM169 270h129v358z" />
    <glyph glyph-name="OE" unicode="&#x152;" horiz-adv-x="717" 
d="M236 0c-108 0 -196 88 -196 196v310c0 109 89 197 197 197h449v-79h-255v-233h243v-79h-243v-233h255v-79h-450zM128 199c0 -66 53 -120 118 -120h101v545h-101c-65 0 -118 -54 -118 -119v-306z" />
    <glyph glyph-name="Oslash" unicode="&#xd8;" horiz-adv-x="526" 
d="M42 514c0 110 89 199 199 199h43c41 0 80 -13 112 -35l42 81l68 -36l-55 -102c20 -31 32 -68 32 -107v-325c0 -110 -90 -199 -199 -199h-43c-41 0 -80 12 -111 34l-43 -80l-66 35l53 102c-20 31 -32 68 -32 108v325zM130 512v-321c0 -66 52 -120 118 -120h29
c65 0 118 54 118 120v321c0 66 -53 120 -118 120h-29c-66 0 -118 -54 -118 -120z" />
    <glyph glyph-name="Eth" unicode="&#xd0;" horiz-adv-x="550" 
d="M19 316v72h51v315h239c110 0 199 -89 199 -199v-305c0 -110 -89 -199 -199 -199h-239v316h-51zM158 624v-236h90v-72h-90v-237h144c65 0 118 56 118 122v301c0 65 -53 122 -118 122h-144z" />
    <glyph glyph-name="Thorn" unicode="&#xde;" horiz-adv-x="468" 
d="M54 0v703h88v-133h129c108 0 195 -87 195 -195v-46c0 -107 -87 -195 -195 -195h-129v-134h-88zM142 213h125c62 0 112 51 112 113v52c0 63 -50 114 -112 114h-125v-279z" />
    <glyph glyph-name="Aacute" unicode="&#xc1;" horiz-adv-x="486" 
d="M400 0l-51 187h-217l-52 -187h-85l197 703h104l194 -703h-90zM241 599l-89 -334h177zM214 734l-32 56l158 95l34 -58z" />
    <glyph glyph-name="Acircumflex" unicode="&#xc2;" horiz-adv-x="486" 
d="M400 0l-51 187h-217l-52 -187h-85l197 703h104l194 -703h-90zM241 599l-89 -334h177zM131 746l-31 52l143 87l143 -87l-31 -52l-112 68z" />
    <glyph glyph-name="Adieresis" unicode="&#xc4;" horiz-adv-x="486" 
d="M400 0l-51 187h-217l-52 -187h-85l197 703h104l194 -703h-90zM241 599l-89 -334h177zM283 763v82h70v-82h-70zM135 763v82h71v-82h-71z" />
    <glyph glyph-name="Agrave" unicode="&#xc0;" horiz-adv-x="486" 
d="M400 0l-51 187h-217l-52 -187h-85l197 703h104l194 -703h-90zM241 599l-89 -334h177zM298 735l-160 93l33 58l159 -95z" />
    <glyph glyph-name="Aring" unicode="&#xc5;" horiz-adv-x="486" 
d="M400 0l-51 187h-217l-52 -187h-85l197 703h104l194 -703h-90zM241 599l-89 -334h177zM235 730c-41 0 -76 33 -76 75v15c0 42 35 74 76 74h16c41 0 75 -32 75 -74v-15c0 -42 -34 -75 -75 -75h-16zM238 781h10c13 0 26 13 26 26v10c0 14 -13 26 -26 26h-10
c-14 0 -26 -12 -26 -26v-10c0 -13 12 -26 26 -26z" />
    <glyph glyph-name="Atilde" unicode="&#xc3;" horiz-adv-x="486" 
d="M400 0l-51 187h-217l-52 -187h-85l197 703h104l194 -703h-90zM241 599l-89 -334h177zM93 801l24 30c20 27 44 37 68 37c21 0 38 -5 56 -17l29 -20c11 -8 18 -11 27 -11c10 0 19 4 26 14l20 26l49 -39l-25 -33c-16 -22 -39 -35 -65 -35c-22 0 -41 5 -55 15l-30 20
c-12 8 -19 12 -28 12c-8 0 -17 -1 -24 -10l-22 -29z" />
    <glyph glyph-name="Ccedilla" unicode="&#xc7;" horiz-adv-x="519" 
d="M394 266h87v-77c0 -107 -84 -193 -189 -199v-25c33 -5 60 -34 60 -71v-16c0 -45 -35 -79 -79 -79h-17c-44 0 -78 34 -78 79v17l55 -1v-14c0 -14 13 -26 27 -26h9c14 0 26 12 26 26v10c0 13 -10 25 -24 26h-38v74c-106 4 -193 91 -193 199v325c0 110 90 199 199 199h43
c110 0 199 -89 199 -199v-77h-87v75c0 66 -53 120 -119 120h-29c-65 0 -118 -54 -118 -120v-321c0 -66 53 -120 118 -120h29c66 0 119 54 119 120v75z" />
    <glyph glyph-name="Eacute" unicode="&#xc9;" horiz-adv-x="435" 
d="M54 0v703h349v-79h-261v-233h249v-79h-249v-233h261v-79h-349zM198 734l-32 56l158 95l34 -58z" />
    <glyph glyph-name="Ecircumflex" unicode="&#xca;" horiz-adv-x="435" 
d="M114 746l-31 52l143 87l143 -87l-31 -52l-112 68zM54 0v703h349v-79h-261v-233h249v-79h-249v-233h261v-79h-349z" />
    <glyph glyph-name="Edieresis" unicode="&#xcb;" horiz-adv-x="435" 
d="M54 0v703h349v-79h-261v-233h249v-79h-249v-233h261v-79h-349zM266 763v82h70v-82h-70zM118 763v82h71v-82h-71z" />
    <glyph glyph-name="Egrave" unicode="&#xc8;" horiz-adv-x="435" 
d="M281 735l-160 93l33 58l159 -95zM54 0v703h349v-79h-261v-233h249v-79h-249v-233h261v-79h-349z" />
    <glyph glyph-name="Iacute" unicode="&#xcd;" 
d="M54 0v703h88v-703h-88zM71 734l-32 56l158 95l34 -58z" />
    <glyph glyph-name="Icircumflex" unicode="&#xce;" 
d="M54 0v703h88v-703h-88zM-13 746l-31 52l143 87l143 -87l-31 -52l-112 68z" />
    <glyph glyph-name="Idieresis" unicode="&#xcf;" 
d="M54 0v703h88v-703h-88zM139 763v82h70v-82h-70zM-9 763v82h71v-82h-71z" />
    <glyph glyph-name="Igrave" unicode="&#xcc;" 
d="M54 0v703h88v-703h-88zM154 735l-160 93l33 58l159 -95z" />
    <glyph glyph-name="Ntilde" unicode="&#xd1;" horiz-adv-x="549" 
d="M126 801l24 30c20 27 44 37 68 37c21 0 38 -5 56 -17l29 -20c11 -8 18 -11 27 -11c10 0 19 4 26 14l20 26l49 -39l-25 -33c-16 -22 -39 -35 -65 -35c-22 0 -41 5 -55 15l-30 20c-12 8 -19 12 -28 12c-8 0 -17 -1 -24 -10l-22 -29zM54 0v703h82l274 -505v505h84v-703h-67
l-289 528v-528h-84z" />
    <glyph glyph-name="Oacute" unicode="&#xd3;" horiz-adv-x="521" 
d="M233 734l-32 56l158 95l34 -58zM40 514c0 110 89 199 199 199h43c109 0 199 -89 199 -199v-325c0 -110 -90 -199 -199 -199h-43c-110 0 -199 89 -199 199v325zM128 512v-321c0 -66 52 -120 118 -120h29c65 0 118 54 118 120v321c0 66 -53 120 -118 120h-29
c-66 0 -118 -54 -118 -120z" />
    <glyph glyph-name="Ocircumflex" unicode="&#xd4;" horiz-adv-x="521" 
d="M149 746l-31 52l143 87l143 -87l-31 -52l-112 68zM40 514c0 110 89 199 199 199h43c109 0 199 -89 199 -199v-325c0 -110 -90 -199 -199 -199h-43c-110 0 -199 89 -199 199v325zM128 512v-321c0 -66 52 -120 118 -120h29c65 0 118 54 118 120v321c0 66 -53 120 -118 120
h-29c-66 0 -118 -54 -118 -120z" />
    <glyph glyph-name="Odieresis" unicode="&#xd6;" horiz-adv-x="521" 
d="M40 514c0 110 89 199 199 199h43c109 0 199 -89 199 -199v-325c0 -110 -90 -199 -199 -199h-43c-110 0 -199 89 -199 199v325zM128 512v-321c0 -66 52 -120 118 -120h29c65 0 118 54 118 120v321c0 66 -53 120 -118 120h-29c-66 0 -118 -54 -118 -120zM301 763v82h70v-82
h-70zM153 763v82h71v-82h-71z" />
    <glyph glyph-name="Ograve" unicode="&#xd2;" horiz-adv-x="521" 
d="M316 735l-160 93l33 58l159 -95zM40 514c0 110 89 199 199 199h43c109 0 199 -89 199 -199v-325c0 -110 -90 -199 -199 -199h-43c-110 0 -199 89 -199 199v325zM128 512v-321c0 -66 52 -120 118 -120h29c65 0 118 54 118 120v321c0 66 -53 120 -118 120h-29
c-66 0 -118 -54 -118 -120z" />
    <glyph glyph-name="Otilde" unicode="&#xd5;" horiz-adv-x="521" 
d="M40 514c0 110 89 199 199 199h43c109 0 199 -89 199 -199v-325c0 -110 -90 -199 -199 -199h-43c-110 0 -199 89 -199 199v325zM128 512v-321c0 -66 52 -120 118 -120h29c65 0 118 54 118 120v321c0 66 -53 120 -118 120h-29c-66 0 -118 -54 -118 -120zM111 801l24 30
c20 27 44 37 68 37c21 0 38 -5 56 -17l29 -20c11 -8 18 -11 27 -11c10 0 19 4 26 14l20 26l49 -39l-25 -33c-16 -22 -39 -35 -65 -35c-22 0 -41 5 -55 15l-30 20c-12 8 -19 12 -28 12c-8 0 -17 -1 -24 -10l-22 -29z" />
    <glyph glyph-name="Scaron" unicode="&#x160;" horiz-adv-x="502" 
d="M33 179v46h86v-45c0 -61 48 -111 109 -111h44c67 0 109 51 109 115v19c0 61 -33 111 -123 111h-19c-127 0 -199 90 -199 186v33c0 102 85 180 189 180h49c105 0 181 -85 181 -190v-47h-85v46c0 61 -44 112 -106 112h-34c-59 0 -106 -45 -106 -104v-21
c0 -61 36 -116 123 -116h21c134 0 197 -80 197 -185v-28c0 -105 -76 -190 -186 -190h-63c-105 0 -187 84 -187 189zM249 737l-143 87l30 52l113 -69l112 69l31 -52z" />
    <glyph glyph-name="Scedilla" unicode="&#x15e;" horiz-adv-x="502" 
d="M33 179v46h86v-45c0 -61 48 -111 109 -111h44c67 0 109 51 109 115v19c0 61 -33 111 -123 111h-19c-127 0 -199 90 -199 186v33c0 102 85 180 189 180h49c105 0 181 -85 181 -190v-47h-85v46c0 61 -44 112 -106 112h-34c-59 0 -106 -45 -106 -104v-21
c0 -61 36 -116 123 -116h21c134 0 197 -80 197 -185v-28c0 -105 -76 -190 -186 -190h-2v-25c33 -5 60 -34 60 -71v-16c0 -45 -35 -79 -79 -79h-17c-44 0 -78 34 -78 79v17l55 -1v-14c0 -14 13 -26 27 -26h9c14 0 26 12 26 26v10c0 13 -10 25 -24 26h-38v74h-2
c-105 0 -187 84 -187 189z" />
    <glyph glyph-name="Uacute" unicode="&#xda;" horiz-adv-x="534" 
d="M397 703h88v-518c0 -108 -88 -195 -195 -195h-45c-108 0 -196 87 -196 195v518h88v-515c0 -64 51 -116 114 -116h32c64 0 114 52 114 116v515zM238 734l-32 56l158 95l34 -58z" />
    <glyph glyph-name="Ucircumflex" unicode="&#xdb;" horiz-adv-x="534" 
d="M155 746l-31 52l143 87l143 -87l-31 -52l-112 68zM397 703h88v-518c0 -108 -88 -195 -195 -195h-45c-108 0 -196 87 -196 195v518h88v-515c0 -64 51 -116 114 -116h32c64 0 114 52 114 116v515z" />
    <glyph glyph-name="Udieresis" unicode="&#xdc;" horiz-adv-x="534" 
d="M397 703h88v-518c0 -108 -88 -195 -195 -195h-45c-108 0 -196 87 -196 195v518h88v-515c0 -64 51 -116 114 -116h32c64 0 114 52 114 116v515zM307 763v82h70v-82h-70zM159 763v82h71v-82h-71z" />
    <glyph glyph-name="Ugrave" unicode="&#xd9;" horiz-adv-x="534" 
d="M322 735l-160 93l33 58l159 -95zM397 703h88v-518c0 -108 -88 -195 -195 -195h-45c-108 0 -196 87 -196 195v518h88v-515c0 -64 51 -116 114 -116h32c64 0 114 52 114 116v515z" />
    <glyph glyph-name="Yacute" unicode="&#xdd;" horiz-adv-x="450" 
d="M181 0v283l-186 420h87l143 -326l144 326h86l-186 -420v-283h-88zM196 734l-32 56l158 95l34 -58z" />
    <glyph glyph-name="Ydieresis" unicode="&#x178;" horiz-adv-x="450" 
d="M181 0v283l-186 420h87l143 -326l144 326h86l-186 -420v-283h-88zM264 763v82h70v-82h-70zM116 763v82h71v-82h-71z" />
    <glyph glyph-name="Zcaron" unicode="&#x17d;" horiz-adv-x="419" 
d="M11 0v68l290 556h-276v79h382v-56l-296 -568h296v-79h-396zM215 737l-143 87l30 52l113 -69l112 69l31 -52z" />
    <glyph glyph-name="a" unicode="a" horiz-adv-x="466" 
d="M471 71v-72h-46c-47 0 -75 18 -89 46c-29 -33 -76 -50 -124 -50h-52c-74 0 -136 43 -136 128c0 86 55 133 140 133h161v91c0 47 -31 91 -81 91h-30c-58 0 -85 -46 -85 -92v-23h-83v37c0 84 67 155 159 155h55c89 0 152 -67 152 -150v-243c0 -39 15 -51 47 -51h12zM183 62
h40c35 0 99 22 102 97v28h-140c-46 0 -72 -23 -72 -64c0 -45 33 -61 70 -61z" />
    <glyph glyph-name="b" unicode="b" horiz-adv-x="485" 
d="M54 0v703h85v-239c29 41 78 51 115 51h53c81 0 140 -65 140 -143v-212c0 -92 -69 -167 -161 -167h-50c-40 0 -80 11 -99 37v-30h-83zM243 438c-58 0 -98 -53 -101 -105v-189c0 -45 40 -75 86 -75h42c60 0 90 52 90 107v168c0 50 -26 94 -78 94h-39z" />
    <glyph glyph-name="c" unicode="c" horiz-adv-x="469" 
d="M348 204h86v-40c0 -94 -72 -171 -166 -171h-63c-94 0 -167 77 -167 171v180c0 94 73 171 167 171h63c94 0 166 -77 166 -171v-41h-86v30c0 55 -31 105 -90 105h-43c-59 0 -90 -50 -90 -105v-159c0 -55 33 -105 92 -105h41c59 0 90 50 90 105v30z" />
    <glyph glyph-name="d" unicode="d" horiz-adv-x="485" 
d="M430 703v-703h-84v44c-29 -40 -79 -51 -115 -51h-52c-82 0 -141 65 -141 143v208c0 94 70 171 165 171h48c36 0 74 -11 94 -34v222h85zM203 69h39c58 0 101 57 101 111v190c-2 42 -39 68 -86 68h-42c-60 0 -90 -51 -90 -107v-168c0 -49 25 -94 78 -94z" />
    <glyph glyph-name="e" unicode="e" horiz-adv-x="460" 
d="M343 195h84v-29c0 -99 -71 -173 -165 -173h-59c-94 0 -165 74 -165 171v182c0 93 76 169 171 169h53c94 0 165 -75 165 -169v-78h-306v-99c0 -55 35 -105 94 -105h38c59 0 90 50 90 107v24zM121 342v-8h223v8c0 55 -31 101 -90 101h-42c-59 0 -91 -46 -91 -101z" />
    <glyph glyph-name="f" unicode="f" horiz-adv-x="248" 
d="M9 432v76h67v49c0 80 59 146 142 146h84v-75h-70c-52 0 -70 -35 -70 -82v-38h106v-76h-106v-432h-86v432h-67z" />
    <glyph glyph-name="g" unicode="g" horiz-adv-x="466" 
d="M463 434h-51c-6 0 -12 -1 -18 -2c10 -20 16 -43 16 -67v-53c0 -81 -61 -150 -149 -150h-76c-17 0 -33 2 -47 7c-4 -13 -4 -25 -4 -36v-7c0 -37 30 -48 57 -48h128c81 0 138 -57 138 -130v-16c0 -81 -53 -137 -171 -137h-127c-101 0 -146 68 -146 120v32
c0 50 26 88 65 105c-11 16 -20 37 -20 60v17c0 28 3 59 18 79c-24 26 -39 62 -39 103v54c0 81 61 150 150 150h77c29 0 56 -9 78 -24c17 10 37 16 58 16h63v-73zM202 445c-50 0 -81 -38 -81 -88v-37c0 -54 35 -88 81 -88h42c51 0 81 37 81 88v37c0 50 -31 88 -81 88h-42z
M170 -131h107c69 0 94 29 94 67v8c0 31 -29 58 -68 58h-146c-41 -2 -59 -26 -59 -60v-11c0 -27 20 -62 72 -62z" />
    <glyph glyph-name="h" unicode="h" horiz-adv-x="490" 
d="M280 436h-34c-56 0 -101 -53 -104 -104v-332h-88v703h88v-252c26 49 82 64 122 64h34c86 0 142 -61 142 -143v-372h-89v349c0 45 -23 87 -71 87z" />
    <glyph glyph-name="i" unicode="i" 
d="M54 0v508h88v-508h-88zM54 569v84h88v-84h-88z" />
    <glyph glyph-name="j" unicode="j" horiz-adv-x="200" 
d="M-61 -196v75h49c46 0 69 35 69 83v546h88v-566c0 -76 -57 -138 -134 -138h-72zM57 569v84h88v-84h-88z" />
    <glyph glyph-name="k" unicode="k" horiz-adv-x="434" 
d="M54 0v703h88v-410h79l109 215h93l-126 -250l142 -258h-95l-122 218h-80v-218h-88z" />
    <glyph glyph-name="l" unicode="l" 
d="M54 0v703h88v-703h-88z" />
    <glyph glyph-name="m" unicode="m" horiz-adv-x="753" 
d="M545 434h-24c-57 0 -97 -50 -99 -102v-332h-87v349c0 45 -24 85 -71 85h-24c-55 0 -96 -48 -100 -98v-336h-86v508h85v-56c28 46 79 63 118 63h36c47 0 87 -24 110 -63c38 50 91 63 135 63h37c73 0 128 -62 128 -134v-381h-87v349c0 45 -23 85 -71 85zM139 427v25v-32v7z
" />
    <glyph glyph-name="n" unicode="n" horiz-adv-x="490" 
d="M280 436h-28c-66 0 -107 -56 -110 -107v-329h-88v508h87v-57c28 50 83 64 123 64h34c87 0 142 -62 142 -143v-372h-89v351c0 45 -23 85 -71 85z" />
    <glyph glyph-name="o" unicode="o" horiz-adv-x="477" 
d="M205 515h67c94 0 167 -77 167 -171v-180c0 -94 -73 -171 -167 -171h-67c-94 0 -167 77 -167 171v180c0 94 73 171 167 171zM217 69h43c59 0 92 50 92 105v159c0 55 -33 105 -92 105h-43c-59 0 -92 -50 -92 -105v-159c0 -55 33 -105 92 -105z" />
    <glyph glyph-name="p" unicode="p" horiz-adv-x="485" 
d="M54 -196v704h84v-45c29 41 79 52 116 52h53c81 0 140 -65 140 -143v-208c0 -94 -71 -171 -165 -171h-48c-38 0 -75 11 -95 35v-224h-85zM243 438c-58 0 -98 -53 -101 -105v-192c0 -45 38 -72 86 -72h42c60 0 90 52 90 107v168c0 50 -26 94 -78 94h-39z" />
    <glyph glyph-name="q" unicode="q" horiz-adv-x="486" 
d="M431 508v-704h-85v240c-29 -40 -78 -51 -114 -51h-53c-82 0 -141 65 -141 143v211c0 93 69 168 162 168h49c39 0 79 -12 99 -37v30h83zM203 69h40c58 0 101 57 101 111v187c0 44 -39 71 -87 71h-42c-60 0 -90 -51 -90 -107v-168c0 -49 26 -94 78 -94z" />
    <glyph glyph-name="r" unicode="r" horiz-adv-x="312" 
d="M54 0v508h84v-68c25 49 82 68 124 68h41v-79h-40c-74 0 -119 -59 -121 -126v-303h-88z" />
    <glyph glyph-name="s" unicode="s" horiz-adv-x="452" 
d="M31 128v42h86v-28c0 -43 31 -76 90 -76h41c55 0 86 30 86 68v7c0 46 -33 75 -99 75h-18c-110 0 -176 55 -176 139v18c0 78 64 142 159 142h57c93 0 156 -64 156 -138v-35h-86v26c0 42 -30 74 -85 74h-30c-56 0 -84 -30 -84 -68v-6c0 -43 29 -73 100 -73h19
c105 0 176 -54 176 -138v-25c0 -78 -69 -139 -156 -139h-79c-92 0 -157 62 -157 135z" />
    <glyph glyph-name="t" unicode="t" horiz-adv-x="404" 
d="M9 432v76h63v87h86v-87h229v-76h-229v-292c0 -40 23 -72 65 -72h19c52 0 69 36 69 74v35h81v-50c0 -73 -58 -134 -133 -134h-56c-76 0 -131 61 -131 130v309h-63z" />
    <glyph glyph-name="u" unicode="u" horiz-adv-x="489" 
d="M209 72h32c57 0 103 53 106 104v332h87v-508h-84v58c-28 -50 -85 -65 -123 -65h-44c-73 0 -133 65 -133 135v380h89v-349c0 -45 22 -87 70 -87z" />
    <glyph glyph-name="v" unicode="v" horiz-adv-x="418" 
d="M271 0h-125l-146 508h88l121 -422l121 422h88z" />
    <glyph glyph-name="w" unicode="w" horiz-adv-x="654" 
d="M239 0h-106l-113 508h84l87 -393l93 393h87l100 -393l86 393h84l-114 -508h-106l-94 360z" />
    <glyph glyph-name="x" unicode="x" horiz-adv-x="399" 
d="M96 508l103 -183l104 183h96l-147 -252l150 -256h-96l-107 188l-106 -188h-97l151 257l-147 251h96z" />
    <glyph glyph-name="y" unicode="y" horiz-adv-x="418" 
d="M17 -197v76h65c48 0 70 21 86 68l17 53h-38l-147 508h88l121 -423l121 423h88l-147 -508l-28 -84c-27 -84 -79 -113 -155 -113h-71z" />
    <glyph glyph-name="z" unicode="z" horiz-adv-x="401" 
d="M25 429v79h355v-56l-248 -373h250v-79h-361v62l247 367h-243z" />
    <glyph glyph-name="germandbls" unicode="&#xdf;" horiz-adv-x="485" 
d="M230 320v71h27c60 0 92 51 92 108v25c0 54 -33 104 -92 104h-36c-52 0 -81 -40 -81 -88v-540h-86v547c0 86 65 156 154 156h62c93 0 166 -77 166 -170v-40c0 -53 -23 -102 -63 -134c54 -26 81 -84 81 -137v-57c0 -91 -70 -165 -161 -165h-64v79h43c58 0 91 49 91 105v29
c0 56 -32 107 -92 107h-41z" />
    <glyph glyph-name="ae" unicode="&#xe6;" horiz-adv-x="748" 
d="M632 195h84v-29c0 -99 -72 -173 -166 -173h-55c-64 0 -114 33 -135 67c-31 -48 -88 -66 -137 -66h-65c-68 0 -134 42 -134 129c0 81 51 133 137 133h164v91c0 47 -31 91 -81 91h-27c-58 0 -88 -46 -88 -92v-23h-83v37c0 84 64 155 156 155h52c49 0 93 -26 114 -60
c29 34 71 60 123 60h59c94 0 166 -75 166 -169v-78h-306v-99c0 -55 33 -105 92 -105h38c59 0 92 50 92 107v24zM188 62h33c36 0 104 22 104 99v26h-143c-43 0 -69 -25 -69 -59c0 -45 24 -66 75 -66zM410 341v-7h223v4c0 55 -31 105 -90 105h-44c-57 0 -88 -48 -89 -102z" />
    <glyph glyph-name="oe" unicode="&#x153;" horiz-adv-x="777" 
d="M272 515c53 0 99 -28 123 -71c25 43 72 71 125 71h59c94 0 166 -75 166 -169v-78h-306v-99c0 -55 33 -105 92 -105h38c59 0 93 50 93 107v24h83v-29c0 -99 -70 -173 -164 -173h-61c-53 0 -100 28 -124 71c-24 -43 -71 -71 -124 -71h-67c-94 0 -167 77 -167 171v180
c0 94 73 171 167 171h67zM217 69h43c59 0 92 50 92 105v159c0 55 -33 105 -92 105h-43c-59 0 -92 -50 -92 -105v-159c0 -55 33 -105 92 -105zM439 342v-8h223v8c0 55 -32 101 -91 101h-41c-59 0 -91 -46 -91 -101z" />
    <glyph glyph-name="oslash" unicode="&#xf8;" horiz-adv-x="477" 
d="M205 515h67c23 0 44 -5 64 -13l41 80l60 -31l-46 -87c30 -31 48 -74 48 -120v-180c0 -94 -73 -171 -167 -171h-67c-21 0 -41 4 -60 11l-45 -85l-57 31l46 90c-32 31 -51 75 -51 124v180c0 94 73 171 167 171zM217 69h43c59 0 92 50 92 105v159c0 55 -33 105 -92 105h-43
c-59 0 -92 -50 -92 -105v-159c0 -55 33 -105 92 -105z" />
    <glyph glyph-name="eth" unicode="&#xf0;" horiz-adv-x="459" 
d="M139 475l-34 52l90 57l-93 75l50 62l115 -91l88 56l35 -52l-72 -46c71 -63 103 -132 103 -219v-212c0 -92 -72 -167 -164 -167h-63c-91 0 -163 75 -163 167v99c0 97 75 172 171 172h31c29 0 74 -11 100 -25c-4 50 -30 92 -86 140zM244 67c51 0 90 42 90 93v165
c-25 10 -71 24 -99 24h-20c-55 0 -97 -41 -97 -97v-91c0 -52 39 -94 90 -94h36z" />
    <glyph glyph-name="thorn" unicode="&#xfe;" horiz-adv-x="485" 
d="M54 -196v899h85v-239c29 41 78 51 115 51h53c81 0 140 -65 140 -143v-208c0 -94 -71 -171 -165 -171h-48c-38 0 -75 11 -95 35v-224h-85zM243 438c-58 0 -98 -53 -101 -105v-192c0 -45 38 -72 86 -72h42c60 0 90 52 90 107v168c0 50 -26 94 -78 94h-39z" />
    <glyph glyph-name="aacute" unicode="&#xe1;" horiz-adv-x="466" 
d="M471 71v-72h-46c-47 0 -75 18 -89 46c-29 -33 -76 -50 -124 -50h-52c-74 0 -136 43 -136 128c0 86 55 133 140 133h161v91c0 47 -31 91 -81 91h-30c-58 0 -85 -46 -85 -92v-23h-83v37c0 84 67 155 159 155h55c89 0 152 -67 152 -150v-243c0 -39 15 -51 47 -51h12zM183 62
h40c35 0 99 22 102 97v28h-140c-46 0 -72 -23 -72 -64c0 -45 33 -61 70 -61zM203 541l-33 55l158 95l35 -57z" />
    <glyph glyph-name="acircumflex" unicode="&#xe2;" horiz-adv-x="466" 
d="M471 71v-72h-46c-47 0 -75 18 -89 46c-29 -33 -76 -50 -124 -50h-52c-74 0 -136 43 -136 128c0 86 55 133 140 133h161v91c0 47 -31 91 -81 91h-30c-58 0 -85 -46 -85 -92v-23h-83v37c0 84 67 155 159 155h55c89 0 152 -67 152 -150v-243c0 -39 15 -51 47 -51h12zM183 62
h40c35 0 99 22 102 97v28h-140c-46 0 -72 -23 -72 -64c0 -45 33 -61 70 -61zM119 553l-31 52l143 87l143 -87l-31 -52l-112 69z" />
    <glyph glyph-name="adieresis" unicode="&#xe4;" horiz-adv-x="466" 
d="M471 71v-72h-46c-47 0 -75 18 -89 46c-29 -33 -76 -50 -124 -50h-52c-74 0 -136 43 -136 128c0 86 55 133 140 133h161v91c0 47 -31 91 -81 91h-30c-58 0 -85 -46 -85 -92v-23h-83v37c0 84 67 155 159 155h55c89 0 152 -67 152 -150v-243c0 -39 15 -51 47 -51h12zM183 62
h40c36 0 102 23 102 103v22h-140c-46 0 -72 -23 -72 -64c0 -45 33 -61 70 -61zM123 571v82h71v-82h-71zM271 571v82h70v-82h-70z" />
    <glyph glyph-name="agrave" unicode="&#xe0;" horiz-adv-x="466" 
d="M471 71v-72h-46c-47 0 -75 18 -89 46c-29 -33 -76 -50 -124 -50h-52c-74 0 -136 43 -136 128c0 86 55 133 140 133h161v91c0 47 -31 91 -81 91h-30c-58 0 -85 -46 -85 -92v-23h-83v37c0 84 67 155 159 155h55c89 0 152 -67 152 -150v-243c0 -39 15 -51 47 -51h12zM183 62
h40c36 0 102 23 102 103v22h-140c-46 0 -72 -23 -72 -64c0 -45 33 -61 70 -61zM286 542l-160 93l34 57l159 -95z" />
    <glyph glyph-name="amacron" unicode="&#x101;" horiz-adv-x="466" 
d="M471 71v-72h-46c-47 0 -75 18 -89 46c-29 -33 -76 -50 -124 -50h-52c-74 0 -136 43 -136 128c0 86 55 133 140 133h161v91c0 47 -31 91 -81 91h-30c-58 0 -85 -46 -85 -92v-23h-83v37c0 84 67 155 159 155h55c89 0 152 -67 152 -150v-243c0 -39 15 -51 47 -51h12zM183 62
h40c35 0 99 22 102 97v28h-140c-46 0 -72 -23 -72 -64c0 -45 33 -61 70 -61zM103 578v68h255v-68h-255z" />
    <glyph glyph-name="aogonek" unicode="&#x105;" horiz-adv-x="466" 
d="M355 -111c0 38 24 68 60 75v35c-41 2 -66 20 -79 46c-29 -33 -76 -50 -124 -50h-52c-74 0 -136 43 -136 128c0 86 55 133 140 133h161v91c0 47 -31 91 -81 91h-30c-58 0 -85 -46 -85 -92v-23h-83v37c0 84 67 155 159 155h55c89 0 152 -67 152 -150v-243
c0 -39 15 -51 47 -51h12v-158h-30c-13 -1 -23 -12 -23 -26v-7c0 -14 12 -26 26 -26h27v-55h-40c-42 0 -76 35 -76 78v12zM183 62h40c36 0 102 23 102 103v22h-140c-46 0 -72 -23 -72 -64c0 -45 33 -61 70 -61z" />
    <glyph glyph-name="aring" unicode="&#xe5;" horiz-adv-x="466" 
d="M471 71v-72h-46c-47 0 -75 18 -89 46c-29 -33 -76 -50 -124 -50h-52c-74 0 -136 43 -136 128c0 86 55 133 140 133h161v91c0 47 -31 91 -81 91h-30c-58 0 -85 -46 -85 -92v-23h-83v37c0 84 67 155 159 155h55c89 0 152 -67 152 -150v-243c0 -39 15 -51 47 -51h12zM183 62
h40c36 0 102 23 102 103v22h-140c-46 0 -72 -23 -72 -64c0 -45 33 -61 70 -61zM223 538c-41 0 -76 33 -76 75v15c0 42 35 74 76 74h16c41 0 75 -32 75 -74v-15c0 -42 -34 -75 -75 -75h-16zM226 589h10c13 0 26 13 26 26v10c0 14 -13 26 -26 26h-10c-14 0 -26 -12 -26 -26
v-10c0 -13 12 -26 26 -26z" />
    <glyph glyph-name="atilde" unicode="&#xe3;" horiz-adv-x="466" 
d="M471 71v-72h-46c-47 0 -75 18 -89 46c-29 -33 -76 -50 -124 -50h-52c-74 0 -136 43 -136 128c0 86 55 133 140 133h161v91c0 47 -31 91 -81 91h-30c-58 0 -85 -46 -85 -92v-23h-83v37c0 84 67 155 159 155h55c89 0 152 -67 152 -150v-243c0 -39 15 -51 47 -51h12zM183 62
h40c35 0 99 22 102 97v28h-140c-46 0 -72 -23 -72 -64c0 -45 33 -61 70 -61zM81 608l24 30c20 27 44 37 68 37c21 0 38 -5 56 -17l29 -20c11 -8 18 -11 27 -11c10 0 19 4 26 14l20 26l49 -39l-25 -33c-16 -22 -39 -35 -65 -35c-22 0 -41 5 -55 15l-30 20
c-12 8 -19 12 -28 12c-8 0 -17 -1 -24 -10l-22 -29z" />
    <glyph glyph-name="ccedilla" unicode="&#xe7;" horiz-adv-x="469" 
d="M348 204h86v-40c0 -94 -72 -171 -166 -171v-28c33 -5 60 -34 60 -71v-16c0 -45 -35 -79 -79 -79h-17c-44 0 -78 34 -78 79v17l55 -1v-14c0 -14 13 -26 27 -26h9c14 0 26 12 26 26v10c0 13 -10 25 -24 26h-38v77h-4c-94 0 -167 77 -167 171v180c0 94 73 171 167 171h63
c94 0 166 -77 166 -171v-41h-86v30c0 55 -31 105 -90 105h-43c-59 0 -90 -50 -90 -105v-159c0 -55 33 -105 92 -105h41c59 0 90 50 90 105v30z" />
    <glyph glyph-name="eacute" unicode="&#xe9;" horiz-adv-x="460" 
d="M343 195h84v-29c0 -99 -71 -173 -165 -173h-59c-94 0 -165 74 -165 171v182c0 93 76 169 171 169h53c94 0 165 -75 165 -169v-78h-306v-99c0 -55 35 -105 94 -105h38c59 0 90 50 90 107v24zM121 342v-8h223v8c0 55 -31 101 -90 101h-42c-59 0 -91 -46 -91 -101zM205 541
l-33 55l158 95l35 -57z" />
    <glyph glyph-name="ecircumflex" unicode="&#xea;" horiz-adv-x="460" 
d="M343 195h84v-29c0 -99 -71 -173 -165 -173h-59c-94 0 -165 74 -165 171v182c0 93 76 169 171 169h53c94 0 165 -75 165 -169v-78h-306v-99c0 -55 35 -105 94 -105h38c59 0 90 50 90 107v24zM121 342v-8h223v8c0 55 -31 101 -90 101h-42c-59 0 -91 -46 -91 -101zM121 553
l-31 52l143 87l143 -87l-31 -52l-112 69z" />
    <glyph glyph-name="edieresis" unicode="&#xeb;" horiz-adv-x="460" 
d="M343 195h84v-29c0 -99 -71 -173 -165 -173h-59c-94 0 -165 74 -165 171v182c0 93 76 169 171 169h53c94 0 165 -75 165 -169v-78h-306v-99c0 -55 35 -105 94 -105h38c59 0 90 50 90 107v24zM121 342v-8h223v8c0 55 -31 101 -90 101h-42c-59 0 -91 -46 -91 -101zM125 571
v82h71v-82h-71zM273 571v82h70v-82h-70z" />
    <glyph glyph-name="egrave" unicode="&#xe8;" horiz-adv-x="460" 
d="M343 195h84v-29c0 -99 -71 -173 -165 -173h-59c-94 0 -165 74 -165 171v182c0 93 76 169 171 169h53c94 0 165 -75 165 -169v-78h-306v-99c0 -55 35 -105 94 -105h38c59 0 90 50 90 107v24zM121 342v-8h223v8c0 55 -31 101 -90 101h-42c-59 0 -91 -46 -91 -101zM288 542
l-160 93l34 57l159 -95z" />
    <glyph glyph-name="iacute" unicode="&#xed;" 
d="M62 541l-33 55l158 95l35 -57zM54 0v508h88v-508h-88z" />
    <glyph glyph-name="icircumflex" unicode="&#xee;" 
d="M-13 553l-31 52l143 87l143 -87l-31 -52l-112 69zM54 0v508h88v-508h-88z" />
    <glyph glyph-name="idieresis" unicode="&#xef;" 
d="M139 571v82h70v-82h-70zM-9 571v82h71v-82h-71zM54 0v508h88v-508h-88z" />
    <glyph glyph-name="igrave" unicode="&#xec;" 
d="M54 0v508h88v-508h-88zM154 542l-160 93l34 57l159 -95z" />
    <glyph glyph-name="ntilde" unicode="&#xf1;" horiz-adv-x="490" 
d="M280 436h-28c-66 0 -107 -56 -110 -107v-329h-88v508h87v-57c28 50 83 64 123 64h34c87 0 142 -62 142 -143v-372h-89v351c0 45 -23 85 -71 85zM97 608l24 30c20 27 44 37 68 37c21 0 38 -5 56 -17l29 -20c11 -8 18 -11 27 -11c10 0 19 4 26 14l20 26l49 -39l-25 -33
c-16 -22 -39 -35 -65 -35c-22 0 -41 5 -55 15l-30 20c-12 8 -19 12 -28 12c-8 0 -17 -1 -24 -10l-22 -29z" />
    <glyph glyph-name="oacute" unicode="&#xf3;" horiz-adv-x="477" 
d="M209 541l-33 55l158 95l35 -57zM205 515h67c94 0 167 -77 167 -171v-180c0 -94 -73 -171 -167 -171h-67c-94 0 -167 77 -167 171v180c0 94 73 171 167 171zM217 69h43c59 0 92 50 92 105v159c0 55 -33 105 -92 105h-43c-59 0 -92 -50 -92 -105v-159
c0 -55 33 -105 92 -105z" />
    <glyph glyph-name="ocircumflex" unicode="&#xf4;" horiz-adv-x="477" 
d="M125 553l-31 52l143 87l143 -87l-31 -52l-112 69zM205 515h67c94 0 167 -77 167 -171v-180c0 -94 -73 -171 -167 -171h-67c-94 0 -167 77 -167 171v180c0 94 73 171 167 171zM217 69h43c59 0 92 50 92 105v159c0 55 -33 105 -92 105h-43c-59 0 -92 -50 -92 -105v-159
c0 -55 33 -105 92 -105z" />
    <glyph glyph-name="odieresis" unicode="&#xf6;" horiz-adv-x="477" 
d="M277 571v82h70v-82h-70zM129 571v82h71v-82h-71zM205 515h67c94 0 167 -77 167 -171v-180c0 -94 -73 -171 -167 -171h-67c-94 0 -167 77 -167 171v180c0 94 73 171 167 171zM217 69h43c59 0 92 50 92 105v159c0 55 -33 105 -92 105h-43c-59 0 -92 -50 -92 -105v-159
c0 -55 33 -105 92 -105z" />
    <glyph glyph-name="ograve" unicode="&#xf2;" horiz-adv-x="477" 
d="M205 515h67c94 0 167 -77 167 -171v-180c0 -94 -73 -171 -167 -171h-67c-94 0 -167 77 -167 171v180c0 94 73 171 167 171zM217 69h43c59 0 92 50 92 105v159c0 55 -33 105 -92 105h-43c-59 0 -92 -50 -92 -105v-159c0 -55 33 -105 92 -105zM292 542l-160 93l34 57
l159 -95z" />
    <glyph glyph-name="ohungarumlaut" unicode="&#x151;" horiz-adv-x="477" 
d="M311 543l-54 29l66 111l54 -30zM179 547l-53 29l66 110l54 -29zM205 515h67c94 0 167 -77 167 -171v-180c0 -94 -73 -171 -167 -171h-67c-94 0 -167 77 -167 171v180c0 94 73 171 167 171zM217 69h43c59 0 92 50 92 105v159c0 55 -33 105 -92 105h-43
c-59 0 -92 -50 -92 -105v-159c0 -55 33 -105 92 -105z" />
    <glyph glyph-name="otilde" unicode="&#xf5;" horiz-adv-x="477" 
d="M205 515h67c94 0 167 -77 167 -171v-180c0 -94 -73 -171 -167 -171h-67c-94 0 -167 77 -167 171v180c0 94 73 171 167 171zM217 69h43c59 0 92 50 92 105v159c0 55 -33 105 -92 105h-43c-59 0 -92 -50 -92 -105v-159c0 -55 33 -105 92 -105zM87 608l24 30
c20 27 44 37 68 37c21 0 38 -5 56 -17l29 -20c11 -8 18 -11 27 -11c10 0 19 4 26 14l20 26l49 -39l-25 -33c-16 -22 -39 -35 -65 -35c-22 0 -41 5 -55 15l-30 20c-12 8 -19 12 -28 12c-8 0 -17 -1 -24 -10l-22 -29z" />
    <glyph glyph-name="scaron" unicode="&#x161;" horiz-adv-x="452" 
d="M227 544l-143 87l30 52l113 -68l112 68l31 -52zM31 128v42h86v-28c0 -43 31 -76 90 -76h41c55 0 86 30 86 68v7c0 46 -33 75 -99 75h-18c-110 0 -176 55 -176 139v18c0 78 64 142 159 142h57c93 0 156 -64 156 -138v-35h-86v26c0 42 -30 74 -85 74h-30
c-56 0 -84 -30 -84 -68v-6c0 -43 29 -73 100 -73h19c105 0 176 -54 176 -138v-25c0 -78 -69 -139 -156 -139h-79c-92 0 -157 62 -157 135z" />
    <glyph glyph-name="uacute" unicode="&#xfa;" horiz-adv-x="489" 
d="M209 72h32c59 0 106 56 106 108v328h87v-508h-84v58c-28 -50 -85 -65 -123 -65h-44c-73 0 -133 65 -133 135v380h89v-349c0 -45 22 -87 70 -87zM215 541l-33 55l158 95l35 -57z" />
    <glyph glyph-name="ucircumflex" unicode="&#xfb;" horiz-adv-x="489" 
d="M209 72h32c57 0 103 53 106 104v332h87v-508h-84v58c-28 -50 -85 -65 -123 -65h-44c-73 0 -133 65 -133 135v380h89v-349c0 -45 22 -87 70 -87zM131 553l-31 52l143 87l143 -87l-31 -52l-112 69z" />
    <glyph glyph-name="udieresis" unicode="&#xfc;" horiz-adv-x="489" 
d="M209 72h32c59 0 106 56 106 108v328h87v-508h-84v58c-28 -50 -85 -65 -123 -65h-44c-73 0 -133 65 -133 135v380h89v-349c0 -45 22 -87 70 -87zM135 571v82h71v-82h-71zM283 571v82h70v-82h-70z" />
    <glyph glyph-name="ugrave" unicode="&#xf9;" horiz-adv-x="489" 
d="M209 72h32c57 0 103 53 106 104v332h87v-508h-84v58c-28 -50 -85 -65 -123 -65h-44c-73 0 -133 65 -133 135v380h89v-349c0 -45 22 -87 70 -87zM298 542l-160 93l34 57l159 -95z" />
    <glyph glyph-name="yacute" unicode="&#xfd;" horiz-adv-x="418" 
d="M17 -197v76h65c48 0 70 21 86 68l17 53h-38l-147 508h88l121 -423l121 423h88l-147 -508l-28 -84c-27 -84 -79 -113 -155 -113h-71zM181 541l-33 55l158 95l35 -57z" />
    <glyph glyph-name="ydieresis" unicode="&#xff;" horiz-adv-x="418" 
d="M17 -197v76h65c48 0 70 21 86 68l17 53h-38l-147 508h88l121 -423l121 423h88l-147 -508l-28 -84c-27 -84 -79 -113 -155 -113h-71zM101 571v82h71v-82h-71zM249 571v82h70v-82h-70z" />
    <glyph glyph-name="ymacron" horiz-adv-x="418" 
d="M17 -197v76h65c48 0 70 21 86 68l17 53h-38l-147 508h88l121 -423l121 423h88l-147 -508l-28 -84c-27 -84 -79 -113 -155 -113h-71zM81 578v68h255v-68h-255z" />
    <glyph glyph-name="zcaron" unicode="&#x17e;" horiz-adv-x="401" 
d="M201 544l-143 87l30 52l113 -68l112 68l31 -52zM25 429v79h355v-56l-248 -373h250v-79h-361v62l247 367h-243z" />
    <glyph glyph-name="zero" unicode="0" horiz-adv-x="528" 
d="M40 514c0 110 90 199 199 199h50c110 0 199 -89 199 -199v-325c0 -110 -89 -199 -199 -199h-50c-109 0 -199 89 -199 199v325zM128 512v-321c0 -66 53 -120 118 -120h36c66 0 119 54 119 120v321c0 66 -53 120 -119 120h-36c-65 0 -118 -54 -118 -120z" />
    <glyph glyph-name="one" unicode="1" horiz-adv-x="307" 
d="M165 0v612l-163 -36v77l196 50h55v-703h-88z" />
    <glyph glyph-name="two" unicode="2" horiz-adv-x="463" 
d="M26 0v68l236 288c44 53 86 99 86 154v18c0 59 -47 106 -105 106h-23c-60 0 -107 -51 -107 -112v-69h-82v70c0 106 78 190 183 190h41c101 0 183 -81 183 -182v-21c0 -89 -56 -143 -116 -213l-177 -212h299v-85h-418z" />
    <glyph glyph-name="three" unicode="3" horiz-adv-x="494" 
d="M35 497v33c0 102 77 183 179 183h51c101 0 183 -82 183 -183v-23c0 -59 -38 -129 -99 -152c71 -25 111 -91 111 -154v-27c0 -102 -82 -184 -183 -184h-67c-103 0 -183 81 -183 184v31h86v-30c0 -59 49 -109 108 -109h39c59 0 107 50 107 109v28c0 65 -56 112 -137 112
h-92v74h88c69 0 133 50 133 120v20c0 59 -47 108 -106 108h-28c-59 0 -104 -49 -104 -108v-32h-86z" />
    <glyph glyph-name="four" unicode="4" horiz-adv-x="473" 
d="M291 703h96v-475h84v-77h-84v-151h-85v151h-300v66zM97 227h205v340z" />
    <glyph glyph-name="five" unicode="5" horiz-adv-x="501" 
d="M47 180v39h85v-37c0 -62 46 -113 108 -113h36c62 0 108 52 108 115v35c0 66 -46 121 -118 121h-207v363h401v-81h-317v-203h139c111 0 190 -87 190 -194v-44c0 -106 -80 -191 -186 -191h-55c-105 0 -184 85 -184 190z" />
    <glyph glyph-name="six" unicode="6" horiz-adv-x="508" 
d="M127 507v-119c28 14 88 26 121 26h41c105 0 186 -81 186 -186v-44c0 -107 -83 -194 -191 -194h-54c-107 0 -190 87 -190 194v327c0 112 83 202 194 202h45c107 0 188 -87 188 -194v-35h-85v30c0 64 -48 118 -112 118h-26c-68 0 -117 -57 -117 -125zM241 337
c-32 0 -88 -12 -114 -22v-129c0 -64 48 -118 112 -118h36c64 0 113 54 113 118v34c0 64 -49 117 -113 117h-34z" />
    <glyph glyph-name="seven" unicode="7" horiz-adv-x="414" 
d="M74 0l238 620h-304v83h405v-62l-246 -641h-93z" />
    <glyph glyph-name="eight" unicode="8" horiz-adv-x="513" 
d="M40 510v22c0 105 83 181 186 181h60c105 0 184 -78 184 -180v-24c0 -63 -34 -127 -90 -154c63 -23 99 -93 99 -159v-25c0 -100 -73 -181 -180 -181h-80c-103 0 -185 79 -185 182v25c0 64 36 137 98 158c-63 27 -92 94 -92 155zM269 316h-28c-87 0 -121 -65 -121 -113v-23
c0 -63 50 -112 113 -112h52c65 0 106 51 106 111v23c0 59 -37 114 -122 114zM384 506v20c0 61 -47 109 -109 109h-40c-59 0 -108 -46 -108 -109v-20c0 -53 31 -113 117 -113h21c85 0 119 62 119 113z" />
    <glyph glyph-name="nine" unicode="9" horiz-adv-x="508" 
d="M381 196v124c-29 -14 -89 -26 -121 -26h-41c-104 0 -185 81 -185 186v39c0 107 82 194 190 194h54c108 0 190 -86 190 -194v-327c0 -112 -83 -202 -194 -202h-45c-107 0 -188 87 -188 194v36h85v-31c0 -64 48 -118 112 -118h26c68 0 117 57 117 125zM267 371
c32 0 88 12 114 21v126c0 64 -48 117 -112 117h-36c-64 0 -112 -53 -112 -117v-30c0 -64 48 -117 112 -117h34z" />
    <glyph glyph-name="onesuperior" unicode="&#xb9;" horiz-adv-x="301" 
d="M36 442h98v194l-105 -23v58l126 32h47v-261h80v-56h-246v56z" />
    <glyph glyph-name="twosuperior" unicode="&#xb2;" horiz-adv-x="301" 
d="M30 386v52l124 99c31 25 49 46 49 67v10c0 23 -14 39 -42 39h-22c-27 0 -47 -18 -47 -43v-36h-61v37c0 54 43 98 101 98h44c56 0 97 -42 97 -92v-11c0 -36 -20 -64 -64 -99l-78 -64h149v-57h-250z" />
    <glyph glyph-name="threesuperior" unicode="&#xb3;" horiz-adv-x="301" 
d="M30 595v23c0 51 39 91 98 91h44c59 0 98 -40 98 -86v-15c0 -23 -12 -50 -44 -62c36 -13 49 -40 49 -65v-13c0 -47 -38 -88 -100 -88h-48c-64 0 -100 41 -100 88v26h64v-22c0 -22 18 -38 49 -38h21c27 0 45 16 45 38v10c0 23 -21 38 -52 38h-52v50h50c27 0 51 13 51 40v10
c0 22 -19 36 -43 36h-20c-29 0 -46 -18 -46 -44v-17h-64z" />
    <glyph glyph-name="onehalf" unicode="&#xbd;" horiz-adv-x="619" 
d="M75 0l385 703h83l-385 -703h-83zM347 0v52l124 99c31 25 49 46 49 67v10c0 23 -14 39 -42 39h-22c-27 0 -47 -18 -47 -43v-36h-61v37c0 54 43 98 101 98h44c56 0 97 -42 97 -92v-11c0 -36 -20 -64 -64 -99l-78 -64h149v-57h-250zM36 442h98v194l-105 -23v58l126 32h47
v-261h80v-56h-246v56z" />
    <glyph glyph-name="onequarter" unicode="&#xbc;" horiz-adv-x="619" 
d="M75 0l385 703h83l-385 -703h-83zM605 67h-49v-67h-66v67h-158v48l137 202h87v-193h49v-57zM36 442h98v194l-105 -23v58l126 32h47v-261h80v-56h-246v56zM491 253l-87 -129h87v129z" />
    <glyph glyph-name="threequarters" unicode="&#xbe;" horiz-adv-x="619" 
d="M30 595v23c0 51 39 91 98 91h44c59 0 98 -40 98 -86v-15c0 -23 -12 -50 -44 -62c36 -13 49 -40 49 -65v-13c0 -47 -38 -88 -100 -88h-48c-64 0 -100 41 -100 88v26h64v-22c0 -22 18 -38 49 -38h21c27 0 45 16 45 38v10c0 23 -21 38 -52 38h-52v50h50c27 0 51 13 51 40v10
c0 22 -19 36 -43 36h-20c-29 0 -46 -18 -46 -44v-17h-64zM75 0l385 703h83l-385 -703h-83zM605 67h-49v-67h-66v67h-158v48l137 202h87v-193h49v-57zM491 253l-87 -129h87v129z" />
    <glyph glyph-name="currency" unicode="&#xa4;" horiz-adv-x="447" 
d="M401 360v-91c0 -38 -13 -72 -34 -99l61 -85l-60 -38l-58 79c-19 -8 -40 -13 -62 -13h-47c-23 0 -45 5 -64 14l-58 -80l-60 38l62 86c-21 27 -33 61 -33 98v91c0 37 12 71 33 98l-62 87l60 38l58 -81c20 9 41 14 64 14h47c22 0 43 -5 62 -14l58 81l60 -38l-62 -86
c22 -27 35 -62 35 -99zM125 347v-65c0 -49 29 -94 82 -94h35c53 0 82 45 82 94v65c0 49 -29 94 -82 94h-35c-53 0 -82 -45 -82 -94z" />
    <glyph glyph-name="dollar" unicode="$" horiz-adv-x="502" 
d="M285 -82h-68v72c-104 2 -184 85 -184 189v46h86v-45c0 -61 48 -111 109 -111h44c67 0 109 51 109 115v19c0 61 -33 112 -123 112h-19c-127 0 -199 89 -199 185v33c0 99 80 176 177 180v73h68v-73c100 -5 174 -89 174 -190v-47h-84v46c0 61 -45 112 -107 112h-34
c-59 0 -106 -45 -106 -104v-21c0 -61 36 -117 123 -117h21c134 0 197 -79 197 -184v-28c0 -105 -75 -189 -184 -190v-72z" />
    <glyph glyph-name="cent" unicode="&#xa2;" horiz-adv-x="469" 
d="M271 -82h-68v75c-93 1 -165 77 -165 171v180c0 93 72 170 165 171v75h68v-75c92 -2 163 -78 163 -171v-41h-86v30c0 55 -31 105 -90 105h-43c-59 0 -90 -50 -90 -105v-159c0 -55 33 -105 92 -105h41c59 0 90 50 90 105v30h86v-40c0 -93 -71 -169 -163 -171v-75z" />
    <glyph glyph-name="sterling" unicode="&#xa3;" horiz-adv-x="458" 
d="M28 320v64h69v117c0 112 89 202 209 202h119v-81h-113c-70 0 -126 -58 -126 -127v-111h213v-64h-213v-115c0 -46 -16 -86 -59 -124h319v-81h-430v78c54 35 81 73 81 124v118h-69z" />
    <glyph glyph-name="yen" unicode="&#xa5;" horiz-adv-x="464" 
d="M62 223v64h122l-182 416h88l142 -323l145 323h85l-186 -416h122v-64h-124v-68h124v-64h-124v-91h-88v91h-124v64h124v68h-124z" />
    <glyph glyph-name="florin" unicode="&#x192;" horiz-adv-x="327" 
d="M118 575c0 72 59 128 130 128h68v-84h-45c-36 0 -65 -31 -65 -66v-169h110v-64h-110v-192c0 -72 -59 -128 -130 -128h-67v85h44c36 0 65 30 65 65v170h-99v64h99v191z" />
    <glyph glyph-name="Euro" unicode="&#x20ac;" horiz-adv-x="560" 
d="M435 254h88v-65c0 -110 -88 -199 -198 -199h-44c-109 0 -199 89 -199 199v58h-63v64h63v82h-63v64h63v57c0 110 90 199 199 199h42c110 0 200 -89 200 -199v-65h-88v63c0 66 -53 120 -118 120h-29c-66 0 -118 -54 -118 -120v-55h210v-64h-210v-82h210v-64h-210v-56
c0 -66 52 -120 118 -120h30c66 0 117 54 117 120v63z" />
    <glyph glyph-name="numbersign" unicode="#" horiz-adv-x="481" 
d="M269 0l23 189h-142l-23 -189h-76l23 189h-52v69h61l23 190h-77v69h86l23 186h77l-24 -186h142l23 186h77l-24 -186h53v-69h-61l-24 -190h78v-69h-87l-23 -189h-76zM183 448l-24 -190h142l23 190h-141z" />
    <glyph glyph-name="ampersand" unicode="&#x26;" horiz-adv-x="566" 
d="M9 162v21c0 80 60 137 110 171l14 10c-38 49 -57 97 -57 151v25c0 95 75 173 171 173h40c92 0 168 -72 168 -177v-65h-81v59c0 66 -43 105 -94 105h-27c-53 0 -94 -44 -94 -96v-20c0 -53 14 -91 94 -168l155 -149c3 4 6 9 10 13l101 120l59 -52l-102 -120l-12 -14
l112 -107l-57 -58l-109 105c-57 -59 -111 -99 -190 -99h-35c-99 0 -176 71 -176 172zM211 282l-26 24l-21 -14c-41 -28 -72 -64 -72 -113v-13c0 -57 44 -98 101 -98h26c50 0 94 32 136 74z" />
    <glyph glyph-name="at" unicode="@" horiz-adv-x="683" 
d="M462 443v-311h25c52 0 95 39 95 109v109c0 114 -92 209 -206 209h-57c-122 0 -220 -100 -220 -221v-170c0 -115 93 -210 208 -210h89c71 0 121 28 163 80l45 56l51 -41l-43 -57c-57 -64 -122 -100 -213 -100h-96c-149 0 -271 122 -271 271v174c0 154 127 280 281 280h66
c148 0 269 -120 269 -267v-122c0 -70 -54 -164 -163 -164h-53c-21 0 -35 14 -37 40c-22 -30 -55 -45 -87 -45h-22c-56 0 -97 43 -97 95v147c0 77 58 138 134 138h139zM307 129h17c33 0 71 37 71 79v171h-67c-48 0 -72 -41 -72 -84v-112c0 -28 17 -54 51 -54z" />
    <glyph glyph-name="percent" unicode="%" horiz-adv-x="606" 
d="M70 0l385 703h83l-385 -703h-83zM587 107c0 -63 -51 -113 -113 -113h-31c-62 0 -113 50 -113 113v109c0 63 51 113 113 113h31c62 0 113 -50 113 -113v-109zM396 211v-100c0 -29 24 -54 53 -54h19c30 0 53 25 53 54v100c0 30 -23 54 -53 54h-19c-29 0 -53 -24 -53 -54z
M278 487c0 -63 -50 -113 -112 -113h-32c-62 0 -112 50 -112 113v109c0 63 50 113 112 113h32c62 0 112 -50 112 -113v-109zM88 591v-100c0 -29 23 -54 53 -54h18c30 0 53 25 53 54v100c0 30 -23 54 -53 54h-18c-30 0 -53 -24 -53 -54z" />
    <glyph glyph-name="perthousand" unicode="&#x2030;" horiz-adv-x="882" 
d="M70 0l385 703h83l-385 -703h-83zM587 107c0 -63 -51 -113 -113 -113h-31c-62 0 -113 50 -113 113v109c0 63 51 113 113 113h31c62 0 113 -50 113 -113v-109zM396 211v-100c0 -29 24 -54 53 -54h19c30 0 53 25 53 54v100c0 30 -23 54 -53 54h-19c-29 0 -53 -24 -53 -54z
M278 487c0 -63 -50 -113 -112 -113h-32c-62 0 -112 50 -112 113v109c0 63 50 113 112 113h32c62 0 112 -50 112 -113v-109zM88 591v-100c0 -29 23 -54 53 -54h18c30 0 53 25 53 54v100c0 30 -23 54 -53 54h-18c-30 0 -53 -24 -53 -54zM877 107c0 -63 -50 -113 -112 -113h-32
c-62 0 -112 50 -112 113v109c0 63 50 113 112 113h32c62 0 112 -50 112 -113v-109zM687 211v-100c0 -29 23 -54 53 -54h18c30 0 53 25 53 54v100c0 30 -23 54 -53 54h-18c-30 0 -53 -24 -53 -54z" />
    <glyph glyph-name="asciicircum" unicode="^" horiz-adv-x="293" 
d="M-2 421l113 283h71l113 -283h-78l-71 184l-71 -184h-77z" />
    <glyph glyph-name="asciitilde" unicode="~" horiz-adv-x="316" 
d="M4 345l25 31c22 28 48 39 73 39c21 0 31 -5 50 -17l34 -21c12 -7 17 -10 26 -10c10 0 18 4 24 12l22 27l53 -43l-27 -35c-17 -21 -37 -35 -64 -35c-23 0 -41 7 -56 16l-31 20c-12 8 -19 10 -27 10s-20 -3 -26 -12l-21 -26z" />
    <glyph glyph-name="bar" unicode="|" 
d="M54 -116v935h88v-935h-88z" />
    <glyph glyph-name="brokenbar" unicode="&#xa6;" 
d="M54 427v392h88v-392h-88zM54 -116v392h88v-392h-88z" />
    <glyph glyph-name="degree" unicode="&#xb0;" horiz-adv-x="224" 
d="M101 499c-53 0 -97 42 -97 97v21c0 53 44 97 97 97h21c55 0 98 -44 98 -97v-21c0 -55 -43 -97 -98 -97h-21zM105 558h14c23 0 40 19 40 41v14c0 23 -17 41 -40 41h-14c-23 0 -40 -18 -40 -41v-14c0 -22 17 -41 40 -41z" />
    <glyph glyph-name="ordfeminine" unicode="&#xaa;" horiz-adv-x="321" 
d="M321 399v-63h-35c-33 0 -56 12 -67 32c-22 -25 -58 -36 -88 -36h-32c-50 0 -99 30 -99 100c0 62 42 97 101 97h109v57c0 29 -21 58 -51 58h-17c-34 0 -55 -28 -55 -57v-19h-71v33c0 62 54 108 118 108h39c62 0 111 -48 111 -109v-169c0 -22 9 -32 27 -32h10zM8 213v68
h308v-68h-308zM124 389h18c23 0 66 13 68 61v24h-87c-31 0 -47 -14 -47 -41c0 -30 22 -44 48 -44z" />
    <glyph glyph-name="ordmasculine" unicode="&#xba;" horiz-adv-x="315" 
d="M136 330c-63 0 -115 51 -115 116v148c0 64 52 115 115 115h44c63 0 115 -51 115 -115v-148c0 -65 -52 -116 -115 -116h-44zM146 395h23c31 0 54 25 54 56v138c0 30 -23 55 -54 55h-23c-30 0 -54 -25 -54 -55v-138c0 -31 24 -56 54 -56zM16 213v68h284v-68h-284z" />
    <glyph glyph-name="underscore" unicode="_" horiz-adv-x="309" 
d="M1 -59h308v-85h-308v85z" />
    <glyph glyph-name="plus" unicode="+" horiz-adv-x="350" 
d="M15 315v75h121v122h76v-122h123v-75h-123v-122h-76v122h-121z" />
    <glyph glyph-name="multiply" unicode="&#xd7;" horiz-adv-x="358" 
d="M75 198l-52 52l103 103l-102 102l52 53l102 -103l104 103l52 -52l-103 -103l103 -103l-52 -53l-104 103z" />
    <glyph glyph-name="plusminus" unicode="&#xb1;" horiz-adv-x="350" 
d="M15 371v74h121v122h76v-122h123v-74h-123v-123h-76v123h-121zM15 145v72h320v-72h-320z" />
    <glyph glyph-name="less" unicode="&#x3c;" horiz-adv-x="350" 
d="M25 317v68l300 134v-79l-209 -89l209 -89v-79z" />
    <glyph glyph-name="equal" unicode="=" horiz-adv-x="350" 
d="M15 399v72h320v-72h-320zM15 234v72h320v-72h-320z" />
    <glyph glyph-name="greater" unicode="&#x3e;" horiz-adv-x="350" 
d="M325 317l-300 -134v79l208 89l-208 89v79l300 -134v-68z" />
    <glyph glyph-name="divide" unicode="&#xf7;" horiz-adv-x="350" 
d="M133 449v75h82v-75h-82zM15 315v75h320v-75h-320zM133 182v74h82v-74h-82z" />
    <glyph glyph-name="logicalnot" unicode="&#xac;" horiz-adv-x="350" 
d="M15 315v75h320v-197h-77v122h-243z" />
    <glyph glyph-name="mu" unicode="&#xb5;" horiz-adv-x="465" 
d="M48 -143v651h83v-353c0 -41 21 -77 66 -77h30c55 0 95 51 95 102v328h82v-370c0 -39 16 -57 49 -57h17v-81h-41c-45 0 -68 21 -82 48c-28 -38 -76 -52 -110 -52h-35c-23 0 -63 10 -76 28v-167h-78z" />
    <glyph glyph-name="mu" unicode="&#x3bc;" horiz-adv-x="465" 
d="M48 -143v651h83v-353c0 -41 21 -77 66 -77h30c55 0 95 51 95 102v328h82v-370c0 -39 16 -57 49 -57h17v-81h-41c-45 0 -68 21 -82 48c-28 -38 -76 -52 -110 -52h-35c-23 0 -63 10 -76 28v-167h-78z" />
    <glyph glyph-name="emdash" unicode="&#x2014;" horiz-adv-x="466" 
d="M16 217v76h434v-76h-434z" />
    <glyph glyph-name="endash" unicode="&#x2013;" horiz-adv-x="340" 
d="M16 217v76h307v-76h-307z" />
    <glyph glyph-name="hyphen" unicode="-" horiz-adv-x="225" 
d="M16 217v76h193v-76h-193z" />
    <glyph glyph-name="quotesingle" unicode="'" horiz-adv-x="146" 
d="M110 538h-74v232h74v-232z" />
    <glyph glyph-name="quotedbl" unicode="&#x22;" horiz-adv-x="267" 
d="M110 538h-74v232h74v-232zM231 538h-74v232h74v-232z" />
    <glyph glyph-name="quotesinglbase" unicode="&#x201a;" horiz-adv-x="146" 
d="M110 -104h-74v232h74v-232z" />
    <glyph glyph-name="quotedblbase" unicode="&#x201e;" horiz-adv-x="267" 
d="M110 -104h-74v232h74v-232zM231 -104h-74v232h74v-232z" />
    <glyph glyph-name="quoteright" unicode="&#x2019;" horiz-adv-x="146" 
d="M110 538h-74v232h74v-232z" />
    <glyph glyph-name="quotedblright" unicode="&#x201d;" horiz-adv-x="267" 
d="M110 538h-74v232h74v-232zM231 538h-74v232h74v-232z" />
    <glyph glyph-name="quoteleft" unicode="&#x2018;" horiz-adv-x="146" 
d="M110 538h-74v232h74v-232z" />
    <glyph glyph-name="quotedblleft" unicode="&#x201c;" horiz-adv-x="267" 
d="M110 538h-74v232h74v-232zM231 538h-74v232h74v-232z" />
    <glyph glyph-name="guillemotleft" unicode="&#xab;" horiz-adv-x="335" 
d="M229 122l-80 129v8l80 129h89l-83 -133l83 -133h-89zM93 122l-80 129v8l80 129h89l-83 -133l83 -133h-89z" />
    <glyph glyph-name="guilsinglleft" unicode="&#x2039;" horiz-adv-x="198" 
d="M93 122l-80 129v8l80 129h89l-83 -133l83 -133h-89z" />
    <glyph glyph-name="guilsinglright" unicode="&#x203a;" horiz-adv-x="198" 
d="M16 122l83 133l-83 133h89l80 -129v-8l-80 -129h-89z" />
    <glyph glyph-name="guillemotright" unicode="&#xbb;" horiz-adv-x="335" 
d="M106 388l80 -129v-8l-80 -129h-89l83 133l-83 133h89zM242 388l80 -129v-8l-80 -129h-89l83 133l-83 133h89z" />
    <glyph glyph-name="comma" unicode="," horiz-adv-x="159" 
d="M123 -136h-87v264h87v-264z" />
    <glyph glyph-name="period" unicode="." horiz-adv-x="159" 
d="M36 0v101h87v-101h-87z" />
    <glyph glyph-name="periodcentered" unicode="&#xb7;" horiz-adv-x="159" 
d="M36 204v101h87v-101h-87z" />
    <glyph glyph-name="colon" unicode=":" horiz-adv-x="159" 
d="M36 407v101h87v-101h-87zM36 0v101h87v-101h-87z" />
    <glyph glyph-name="semicolon" unicode=";" horiz-adv-x="159" 
d="M36 407v101h87v-101h-87zM36 -136v264h87v-264h-87z" />
    <glyph glyph-name="ellipsis" unicode="&#x2026;" horiz-adv-x="447" 
d="M331 0v87h81v-87h-81zM183 0v87h81v-87h-81zM36 0v87h80v-87h-80z" />
    <glyph glyph-name="question" unicode="?" horiz-adv-x="301" 
d="M52 192v41c0 43 27 88 51 115l49 54c31 34 47 63 47 104v17c0 56 -46 101 -101 101h-75v79h96c94 0 168 -75 168 -167v-22c0 -55 -19 -99 -59 -145l-52 -58c-21 -24 -37 -51 -37 -87v-32h-87zM52 0v101h87v-101h-87z" />
    <glyph glyph-name="questiondown" unicode="&#xbf;" horiz-adv-x="301" 
d="M249 316v-41c0 -43 -27 -88 -51 -115l-49 -54c-31 -34 -47 -63 -47 -104v-17c0 -56 46 -101 101 -101h75v-79h-96c-94 0 -168 75 -168 167v22c0 55 19 99 59 145l52 58c21 24 37 51 37 87v32h87zM249 508v-101h-87v101h87z" />
    <glyph glyph-name="exclam" unicode="!" 
d="M54 192v511h88v-511h-88zM54 0v101h88v-101h-88z" />
    <glyph glyph-name="exclamdown" unicode="&#xa1;" 
d="M142 316v-511h-88v511h88zM142 508v-101h-88v101h88z" />
    <glyph glyph-name="parenleft" unicode="(" horiz-adv-x="251" 
d="M136 -86c-52 54 -82 114 -82 205v457c0 90 30 151 82 205l59 62l63 -56l-56 -59c-39 -42 -60 -79 -60 -169v-423c0 -91 20 -128 59 -170l56 -60l-62 -54z" />
    <glyph glyph-name="parenright" unicode=")" horiz-adv-x="251" 
d="M197 576v-458c0 -90 -30 -151 -81 -204l-60 -63l-62 56l56 60c38 42 59 78 59 168v424c0 90 -20 127 -58 169l-56 60l61 55l60 -63c51 -53 81 -114 81 -204z" />
    <glyph glyph-name="bracketleft" unicode="[" horiz-adv-x="251" 
d="M142 -37h104v-79h-192v935h192v-79h-104v-777z" />
    <glyph glyph-name="bracketright" unicode="]" horiz-adv-x="251" 
d="M5 -37h104v777h-104v79h192v-935h-192v79z" />
    <glyph glyph-name="braceleft" unicode="{" horiz-adv-x="263" 
d="M158 414c0 -26 -13 -51 -35 -63c23 -14 35 -37 35 -63v-262c0 -33 28 -64 62 -64h38v-79h-65c-70 0 -123 53 -123 120v262c0 24 -16 47 -39 47h-30v79h30c23 0 39 22 39 47v262c0 66 53 119 123 119h65v-79h-38c-34 0 -62 -30 -62 -64v-262z" />
    <glyph glyph-name="braceright" unicode="}" horiz-adv-x="263" 
d="M105 26v262c0 26 13 51 35 63c-23 14 -35 37 -35 63v262c0 34 -27 64 -62 64h-38v79h65c71 0 124 -53 124 -119v-262c0 -24 15 -47 38 -47h30v-79h-30c-23 0 -38 -22 -38 -47v-262c0 -67 -53 -120 -124 -120h-65v79h38c35 0 62 31 62 64z" />
    <glyph glyph-name="slash" unicode="/" horiz-adv-x="283" 
d="M0 0l193 703h90l-193 -703h-90z" />
    <glyph glyph-name="backslash" unicode="\" horiz-adv-x="283" 
d="M193 0l-193 703h90l193 -703h-90z" />
    <glyph glyph-name="asterisk" unicode="*" horiz-adv-x="318" 
d="M6 514v68h93l-69 96l60 39l68 -96l70 96l60 -39l-71 -96h95v-68h-90l66 -91l-60 -39l-69 95l-69 -95l-60 39l66 91h-90z" />
    <glyph glyph-name="bullet" unicode="&#x2022;" horiz-adv-x="242" 
d="M105 150c-50 0 -90 40 -90 90v31c0 49 40 89 90 89h32c49 0 89 -40 89 -89v-31c0 -50 -40 -90 -89 -90h-32z" />
    <glyph glyph-name="section" unicode="&#xa7;" horiz-adv-x="388" 
d="M16 341v31c0 51 28 92 69 116c-44 25 -64 68 -64 114v30c0 82 65 145 146 145h50c83 0 147 -68 147 -150v-41h-77v40c0 44 -34 83 -78 83h-29c-43 0 -78 -33 -78 -78v-22c0 -44 31 -85 88 -85h18c93 0 163 -65 163 -153v-30c0 -49 -23 -96 -66 -119
c44 -22 67 -65 67 -114v-29c0 -82 -60 -150 -146 -150h-61c-82 0 -147 64 -147 150v41h77v-41c0 -44 37 -81 79 -81h39c46 0 77 37 77 81v23c0 48 -32 83 -95 83h-16c-97 1 -163 68 -163 156zM181 255h21c58 0 89 40 89 77v37c0 43 -36 81 -91 81h-21c-50 0 -86 -38 -86 -79
v-34c0 -39 37 -82 88 -82z" />
    <glyph glyph-name="dagger" unicode="&#x2020;" horiz-adv-x="392" 
d="M152 0v445h-152v82h152v176h88v-176h152v-82h-152v-445h-88z" />
    <glyph glyph-name="daggerdbl" unicode="&#x2021;" horiz-adv-x="438" 
d="M175 0v177h-152v81h152v187h-152v82h152v176h88v-176h152v-82h-152v-187h152v-81h-152v-177h-88z" />
    <glyph glyph-name="paragraph" unicode="&#xb6;" horiz-adv-x="409" 
d="M170 0v369h-30c-78 0 -140 61 -140 140v55c0 78 62 139 140 139h267v-76h-57v-627h-66v627h-48v-627h-66z" />
    <glyph glyph-name="trademark" unicode="&#x2122;" horiz-adv-x="668" 
d="M311 335v368h73l92 -178l91 178h70v-368h-65v254l-87 -170h-22l-87 170v-254h-65zM100 335v305h-100v63h270v-63h-100v-305h-70z" />
    <glyph glyph-name="registered" unicode="&#xae;" horiz-adv-x="545" 
d="M243 168c-122 0 -222 100 -222 223v101c0 122 100 222 222 222h58c123 0 223 -100 223 -222v-97c0 -123 -100 -227 -223 -227h-58zM244 221h57c90 0 165 82 165 172v102c0 90 -75 167 -165 167h-57c-91 0 -166 -77 -166 -167v-106c0 -91 75 -168 166 -168zM336 288
l-49 111h-59v-111h-57v307h127c48 0 87 -38 87 -86v-23c0 -33 -17 -59 -42 -74l58 -124h-65zM228 451h64c18 0 32 15 32 32v28c0 17 -14 32 -32 32h-64v-92z" />
    <glyph glyph-name="copyright" unicode="&#xa9;" horiz-adv-x="690" 
d="M658 265c0 -148 -122 -275 -271 -275h-84c-149 0 -271 122 -271 270v184c0 148 122 270 271 270h84c149 0 271 -122 271 -270v-179zM591 443c0 115 -93 210 -207 210h-77c-115 0 -208 -95 -208 -210v-182c0 -114 93 -210 208 -210h77c114 0 207 101 207 215v177zM426 319
h70v-47c0 -71 -58 -129 -129 -129h-42c-71 0 -129 58 -129 129v161c0 70 58 128 129 128h42c71 0 129 -58 129 -128v-48h-70v45c0 37 -29 67 -65 67h-30c-36 0 -66 -30 -66 -67v-156c0 -37 30 -67 66 -67h30c36 0 65 30 65 67v45z" />
    <glyph glyph-name="acute" unicode="&#xb4;" horiz-adv-x="302" 
d="M101 541l-33 55l158 95l35 -57z" />
    <glyph glyph-name="grave" unicode="`" horiz-adv-x="302" 
d="M206 542l-160 93l34 57l159 -95z" />
    <glyph glyph-name="circumflex" unicode="&#x2c6;" horiz-adv-x="302" 
d="M39 553l-31 52l143 87l143 -87l-31 -52l-112 69z" />
    <glyph glyph-name="dieresis" unicode="&#xa8;" horiz-adv-x="302" 
d="M191 571v82h70v-82h-70zM43 571v82h71v-82h-71z" />
    <glyph glyph-name="macron" unicode="&#xaf;" horiz-adv-x="302" 
d="M23 578v68h255v-68h-255z" />
    <glyph glyph-name="tilde" unicode="&#x2dc;" horiz-adv-x="302" 
d="M1 608l24 30c20 27 44 37 68 37c21 0 38 -5 56 -17l29 -20c11 -8 18 -11 27 -11c10 0 19 4 26 14l20 26l49 -39l-25 -33c-16 -22 -39 -35 -65 -35c-22 0 -41 5 -55 15l-30 20c-12 8 -19 12 -28 12c-8 0 -17 -1 -24 -10l-22 -29z" />
    <glyph glyph-name="cedilla" unicode="&#xb8;" horiz-adv-x="302" 
d="M124 0h59v-35c33 -5 60 -34 60 -71v-16c0 -45 -35 -79 -79 -79h-17c-44 0 -78 34 -78 79v17l55 -1v-14c0 -14 13 -26 27 -26h9c14 0 26 12 26 26v10c0 13 -10 25 -24 26h-38v84z" />
    <glyph glyph-name="Ncommaaccent_calt001" horiz-adv-x="549" 
d="M252 -28l70 -17l-41 -150l-69 17zM494 365h-84v338h84v-338zM54 416v287h82l274 -505v137h84v-335h-67l-289 528v-112h-84zM54 386h84v-386h-84v386z" />
    <glyph glyph-name="Ntilde_calt001" horiz-adv-x="549" 
d="M126 801l24 30c20 27 44 37 68 37c21 0 38 -5 56 -17l29 -20c11 -8 18 -11 27 -11c10 0 19 4 26 14l20 26l49 -39l-25 -33c-16 -22 -39 -35 -65 -35c-22 0 -41 5 -55 15l-30 20c-12 8 -19 12 -28 12c-8 0 -17 -1 -24 -10l-22 -29zM494 365h-84v338h84v-338zM54 416v287
h82l274 -505v137h84v-335h-67l-289 528v-112h-84zM54 386h84v-386h-84v386z" />
    <glyph glyph-name="Scircumflex_calt001" horiz-adv-x="502" 
d="M128 532h-88v2c0 101 84 179 187 179h50c105 0 182 -85 182 -190v-47h-85v46c0 61 -44 112 -106 112h-34c-58 0 -105 -43 -106 -102zM381 179h88v-2c0 -100 -76 -187 -186 -187h-63c-105 0 -187 84 -187 189v46h86v-45c0 -61 50 -111 111 -111h42c65 0 107 49 109 110z
M469 209h-89c-2 56 -34 105 -122 105h-19c-127 0 -201 91 -199 188h88c1 -54 37 -109 123 -109h21c134 0 197 -82 197 -181v-3zM137 746l-31 52l143 87l143 -87l-31 -52l-112 68z" />
    <glyph glyph-name="Scommaaccent_calt001" horiz-adv-x="502" 
d="M225 -28l70 -17l-41 -150l-69 17zM128 532h-88v2c0 101 84 179 187 179h50c105 0 182 -85 182 -190v-47h-85v46c0 61 -44 112 -106 112h-34c-58 0 -105 -43 -106 -102zM381 179h88v-2c0 -100 -76 -187 -186 -187h-63c-105 0 -187 84 -187 189v46h86v-45
c0 -61 50 -111 111 -111h42c65 0 107 49 109 110zM469 209h-89c-2 56 -34 105 -122 105h-19c-127 0 -201 91 -199 188h88c1 -54 37 -109 123 -109h21c134 0 197 -82 197 -181v-3z" />
    <glyph glyph-name="uni1E62_calt001" horiz-adv-x="502" 
d="M128 532h-88v2c0 101 84 179 187 179h50c105 0 182 -85 182 -190v-47h-85v46c0 61 -44 112 -106 112h-34c-58 0 -105 -43 -106 -102zM381 179h88v-2c0 -100 -76 -187 -186 -187h-63c-105 0 -187 84 -187 189v46h86v-45c0 -61 50 -111 111 -111h42c65 0 107 49 109 110z
M469 209h-89c-2 56 -34 105 -122 105h-19c-127 0 -201 91 -199 188h88c1 -54 37 -109 123 -109h21c134 0 197 -82 197 -181v-3zM207 -118v82h84v-82h-84z" />
    <glyph glyph-name="Tbar_calt001" horiz-adv-x="417" 
d="M252 320v-320h-87v320h-104v64h104v210h87v-210h104v-64h-104zM427 624h-437v79h437v-79z" />
    <glyph glyph-name="Tcaron_calt001" horiz-adv-x="417" 
d="M427 624h-437v79h437v-79zM165 594h87v-594h-87v594zM208 737l-143 87l30 52l113 -69l112 69l31 -52z" />
    <glyph glyph-name="Tcommaaccent_calt001" horiz-adv-x="417" 
d="M184 -28l70 -17l-41 -150l-69 17zM427 624h-437v79h437v-79zM165 594h87v-594h-87v594z" />
    <glyph glyph-name="j.inferior_calt001" horiz-adv-x="151" 
d="M-28 -115v55h29c27 0 41 20 41 47v330h68v-342c0 -50 -37 -90 -89 -90h-49zM42 363v61h68v-61h-68z" />
    <glyph glyph-name="j.alt1_calt001" horiz-adv-x="200" 
d="M57 246h88v-374c0 -49 -31 -68 -68 -68h-20v442zM145 276h-88v232h88v-232zM57 569v84h88v-84h-88z" />
  </font>
</defs>
</svg>
