<?xml version="1.0" standalone="no"?>
<!DOCTYPE svg PUBLIC "-//W3C//DTD SVG 1.1//EN" "http://www.w3.org/Graphics/SVG/1.1/DTD/svg11.dtd" >
<svg xmlns="http://www.w3.org/2000/svg">
<metadata></metadata>
<defs>
<font id="nitti_wm2light" horiz-adv-x="1126" >
<font-face units-per-em="2048" ascent="1597" descent="-451" />
<missing-glyph horiz-adv-x="500" />
<glyph />
<glyph />
<glyph unicode="&#xd;" />
<glyph unicode=" " />
<glyph unicode="!" d="M459 0v209h209v-209h-209zM498 786v357h133v-357l-29 -391h-76z" />
<glyph unicode="&#x22;" d="M289 1071q0 94 94 94t94 -94q0 -23 -49 -459h-90q-49 436 -49 459zM649 1071q0 94 94 94q45 0 70 -24t25 -70q0 -14 -50 -459h-90q-49 436 -49 459z" />
<glyph unicode="#" d="M51 332l21 98h215l59 307h-217l21 99h215l59 307h108l-59 -307h283l59 307h109l-60 -307h211l-20 -99h-209l-60 -307h211l-20 -98h-211l-64 -332h-108l63 332h-282l-64 -332h-108l63 332h-215zM395 430h283l59 307h-282z" />
<glyph unicode="$" d="M111 385h125q8 -74 73 -129t172 -68v355q-44 10 -74 18.5t-69 22t-65.5 27t-54.5 33.5t-45 43t-27.5 54.5t-10.5 67.5q0 117 96 182.5t250 71.5v182h117v-184q136 -16 220 -87.5t93 -193.5h-127q-11 74 -63 117t-123 55v-323q60 -14 103 -26.5t92 -35.5t79.5 -51t51 -71 t20.5 -97q0 -125 -96.5 -192.5t-249.5 -77.5v-180h-117v182q-102 9 -181.5 44t-131.5 102t-57 159zM262 813q0 -26 11.5 -48t30 -37.5t48.5 -29.5t59.5 -23.5t69.5 -19.5v301q-104 -4 -161.5 -43t-57.5 -100zM598 186q100 6 160.5 47t60.5 111q0 47 -31.5 81t-76 53 t-113.5 36v-328z" />
<glyph unicode="%" d="M41 848q0 156 76 236.5t194 80.5t194.5 -80t76.5 -233q0 -156 -76.5 -236.5t-194.5 -80.5t-194 79.5t-76 233.5zM43 0l358 463h82v-82l-293 -381h-147zM160 850q0 -99 34.5 -153t116.5 -54q152 0 152 207t-152 207q-82 0 -116.5 -54t-34.5 -153zM545 293q0 156 76 236.5 t194 80.5t194 -79.5t76 -233.5q0 -156 -76 -236.5t-194 -80.5t-194 79.5t-76 233.5zM643 682v82l291 379h147l-356 -461h-82zM664 295q0 -99 34.5 -153t116.5 -54q152 0 152 207t-152 207q-82 0 -116.5 -54t-34.5 -153z" />
<glyph unicode="&#x26;" d="M98 307q0 102 52 173.5t149 103.5q-82 33 -131 99.5t-49 164.5q0 149 107 233t284 84q58 0 109.5 -8.5t103 -31t89.5 -58t64 -93t31 -132.5h-125q-19 213 -270 213q-122 0 -193 -50t-71 -157q0 -109 77 -158t224 -49h555v-106h-195v-535h-395q-203 0 -309.5 81 t-106.5 226zM227 311q0 -200 305 -200h252v424h-235q-148 0 -235 -57t-87 -167z" />
<glyph unicode="'" d="M469 1071q0 94 94 94t94 -94q0 -23 -49 -459h-90q-49 436 -49 459z" />
<glyph unicode="(" d="M338 465q0 205 111.5 416t347.5 413h125q-249 -260 -353 -446t-104 -383t104 -383.5t353 -446.5h-125q-236 202 -347.5 413.5t-111.5 416.5z" />
<glyph unicode=")" d="M205 -365q249 260 353 446.5t104 383.5t-104 383t-353 446h125q236 -202 347 -413t111 -416t-111 -416.5t-347 -413.5h-125z" />
<glyph unicode="*" d="M145 954l31 95l326 -93l12 338h98l13 -338l325 93l31 -95l-317 -116l188 -281l-80 -59l-209 266l-209 -266l-80 59l189 281z" />
<glyph unicode="+" d="M113 389v111h393v385h117v-385h393v-111h-393v-389h-117v389h-393z" />
<glyph unicode="," d="M383 -270q0 19 4 39l74 440h215l-191 -479q-10 -25 -22.5 -34t-32.5 -9q-47 0 -47 43z" />
<glyph unicode="-" d="M266 516v113h594v-113h-594z" />
<glyph unicode="." d="M459 0v209h209v-209h-209z" />
<glyph unicode="/" d="M-43 -365l977 1659h125l-977 -1659h-125z" />
<glyph unicode="0" d="M131 567q0 182 47 314.5t146 208t241 75.5q144 0 242 -76.5t143 -206.5t45 -307q0 -276 -110.5 -435.5t-323.5 -159.5q-144 0 -242 75.5t-143 205t-45 306.5zM264 571q0 -477 299 -477t299 477q0 98 -13.5 177.5t-45.5 151t-93 111.5t-147 40t-147 -40t-93 -111.5 t-45.5 -151t-13.5 -177.5zM459 571q0 15 18 33l53 53q19 19 33 19t33 -19l53 -53q19 -19 19 -33q0 -13 -19 -32l-53 -54q-18 -18 -33 -18t-33 18l-53 54q-18 18 -18 32z" />
<glyph unicode="1" d="M219 0v109h295v882q-27 -24 -50.5 -39t-73 -28t-114.5 -13h-57v113h103q150 0 206 119h111v-1034h266v-109h-686z" />
<glyph unicode="2" d="M182 0v104q0 113 70.5 194t193.5 146l205 109q96 51 148.5 114t52.5 162q0 108 -64.5 165t-187.5 57q-126 0 -199 -64t-73 -205h-131q0 178 107.5 280.5t301.5 102.5q174 0 275.5 -84.5t101.5 -244.5q0 -128 -68.5 -219t-201.5 -162l-199 -107q-109 -59 -156 -107.5 t-47 -127.5h688v-113h-817z" />
<glyph unicode="3" d="M164 377h129q0 -139 76 -211t213 -72q123 0 201.5 55t78.5 162q0 109 -82 163t-217 54h-22v105h22q130 0 204.5 52t74.5 155q0 102 -72 156.5t-186 54.5q-126 0 -202.5 -70t-76.5 -211h-129q0 99 33.5 176t92 124t132 71t158.5 24q169 0 276 -86t107 -233 q0 -187 -189 -262q209 -75 209 -275q0 -146 -109 -237.5t-298 -91.5q-89 0 -164 22.5t-134 68.5t-92.5 124t-33.5 182z" />
<glyph unicode="4" d="M96 291v88l594 764h127v-744h176v-108h-176v-291h-125v291h-596zM252 399h440v566z" />
<glyph unicode="5" d="M190 406h127q0 -145 67.5 -229.5t209.5 -84.5q143 0 210.5 82t67.5 213q0 149 -81 217t-209 68q-148 0 -263 -86l-96 26l70 531h637v-113h-533l-43 -315q95 67 246 67q188 0 296 -104.5t108 -288.5q0 -186 -109.5 -297.5t-304.5 -111.5q-191 0 -295.5 112t-104.5 314z " />
<glyph unicode="6" d="M158 557q0 289 113 448.5t331 159.5q167 0 264 -92t97 -252h-127q0 41 -12 79.5t-37 73.5t-73 56t-112 21q-76 0 -133.5 -30.5t-91 -77.5t-54 -112t-27.5 -123.5t-7 -123.5q47 49 127.5 87t187.5 38q75 0 142.5 -21.5t120.5 -63t84.5 -108.5t31.5 -151 q0 -51 -10.5 -100.5t-38.5 -102t-70.5 -92t-112.5 -65t-159 -25.5q-115 0 -199.5 42t-135.5 120t-75 181t-24 234zM289 473q3 -55 11 -103.5t29.5 -101t53 -89.5t85 -61t122.5 -24q122 0 191 70t69 188q0 116 -66 179t-190 63q-174 0 -305 -121z" />
<glyph unicode="7" d="M223 870v273h832v-105q-217 -220 -336 -483.5t-119 -554.5h-131q0 272 114 545.5t318 484.5h-559v-160h-119z" />
<glyph unicode="8" d="M131 305q0 205 209 279q-188 74 -188 262q0 150 112 234.5t299 84.5q189 0 300.5 -85t111.5 -234q0 -187 -189 -262q209 -76 209 -279q0 -147 -110.5 -236t-321.5 -89q-212 0 -322 89t-110 236zM264 311q0 -109 81.5 -163t217.5 -54t217.5 54t81.5 163t-81.5 163 t-217.5 54t-217.5 -54t-81.5 -163zM285 842q0 -105 73.5 -157t204.5 -52t205 52t74 157t-74 157t-205 52t-204.5 -52t-73.5 -157z" />
<glyph unicode="9" d="M141 780q0 51 10.5 100.5t38.5 102t70.5 92t112.5 65t159 25.5q115 0 199.5 -42t135.5 -120t75.5 -181t24.5 -234q0 -289 -113.5 -448.5t-331.5 -159.5q-166 0 -263 91.5t-97 252.5h127q0 -41 11.5 -79.5t37 -73.5t73 -56t111.5 -21q76 0 134 31t91 77.5t54 111.5t28 123 t7 122q-128 -123 -316 -123q-75 0 -142.5 21.5t-120.5 63t-84.5 108.5t-31.5 151zM274 791q0 -115 66.5 -177.5t191.5 -62.5q178 0 302 119q-19 381 -299 381q-122 0 -191.5 -70.5t-69.5 -189.5z" />
<glyph unicode=":" d="M459 0v209h209v-209h-209zM459 676v209h209v-209h-209z" />
<glyph unicode=";" d="M385 -244l76 453h215l-191 -479q-10 -25 -22.5 -34t-32.5 -9q-29 0 -40 16t-5 53zM459 676v209h209v-209h-209z" />
<glyph unicode="&#x3c;" d="M100 395v94l926 416v-125l-766 -338l766 -333v-129z" />
<glyph unicode="=" d="M207 227v111h715v-111h-715zM207 551v111h715v-111h-715z" />
<glyph unicode="&#x3e;" d="M100 -20v124l764 336l-764 336v129l926 -416v-94z" />
<glyph unicode="?" d="M156 852q0 84 32 146t88.5 97.5t125 52.5t149.5 17q99 0 176.5 -25t124.5 -68.5t70.5 -98t23.5 -117.5q0 -64 -24 -120.5t-77.5 -114.5t-122.5 -113t-177 -127l-60 68q198 158 265 240.5t67 162.5q0 89 -64 145t-206 56q-129 0 -198.5 -50.5t-69.5 -150.5h-123zM438 0 v209h209v-209h-209z" />
<glyph unicode="@" d="M147 442q0 117 11.5 202t30.5 134.5t48 78.5t57.5 38.5t65.5 9.5q53 0 92 -21t70 -75v76h107v-668q0 -65 33.5 -100t85.5 -35t84 35t32 100v606q0 96 -13 163t-45.5 120.5t-93.5 79.5t-153 26q-144 0 -210 -61t-66 -162h-115q0 42 9.5 82.5t37 86t69.5 79t115 56 t166 22.5q64 0 117 -10.5t92.5 -28t71 -45t52.5 -55.5t36 -65.5t23 -70t13 -74.5t6 -72.5t1 -70.5v-606q0 -69 -22.5 -118t-59.5 -73.5t-74.5 -35t-77.5 -10.5q-80 0 -123 32t-67 92q-69 -124 -199 -124q-49 0 -83.5 18t-64 65.5t-44.5 142t-15 236.5zM264 442 q0 -204 26.5 -284t90.5 -80q80 0 135 92v545q-55 92 -135 92q-64 0 -90.5 -80.5t-26.5 -284.5z" />
<glyph unicode="A" d="M86 0l406 1143h143l405 -1143h-143l-96 285h-477l-99 -285h-139zM358 397h404l-201 596z" />
<glyph unicode="B" d="M223 0v1143h328q175 0 286 -80.5t111 -224.5q0 -167 -168 -246q97 -33 156 -101.5t59 -171.5q0 -145 -115.5 -232t-291.5 -87h-365zM352 113h236q138 0 206 60t68 155q0 97 -72 148.5t-210 51.5h-228v-415zM352 641h180q283 0 283 188q0 93 -67.5 147t-204.5 54h-191 v-389z" />
<glyph unicode="C" d="M131 569q0 291 118 443.5t345 152.5q57 0 108 -9t104 -34.5t92 -65t65.5 -105.5t29.5 -152h-129q-30 256 -272 256q-80 0 -140 -28.5t-95 -73.5t-56.5 -110.5t-29 -129.5t-7.5 -142t7.5 -141.5t29 -129t56.5 -110t95 -72.5t140 -28q242 0 272 256h129q-4 -100 -41 -174 t-96.5 -114.5t-127 -59t-144.5 -18.5q-221 0 -337 150.5t-116 438.5z" />
<glyph unicode="D" d="M223 0v1143h303q78 0 142.5 -15.5t112 -42.5t84.5 -68t61.5 -88.5t40 -106t22 -119t6.5 -130.5q0 -101 -14 -184t-47.5 -156.5t-86 -124t-134 -79.5t-187.5 -29h-303zM352 113h174q64 0 115 15.5t86 40t60 62.5t39.5 76t22.5 87t10.5 88.5t2.5 88.5t-2.5 88.5t-10.5 89 t-22.5 87.5t-39.5 75.5t-60 62.5t-86 40.5t-115 15.5h-174v-917z" />
<glyph unicode="E" d="M223 0v1143h705v-113h-576v-389h506v-113h-506v-415h576v-113h-705z" />
<glyph unicode="F" d="M223 0v1143h715v-113h-586v-418h514v-112h-514v-500h-129z" />
<glyph unicode="G" d="M133 573q0 285 112.5 438.5t319.5 153.5q55 0 104.5 -10.5t100.5 -38.5t88.5 -71t63 -114t28.5 -163h-129q-14 141 -78.5 214t-179.5 73q-82 0 -141.5 -38t-92.5 -106.5t-48 -150.5t-15 -182q0 -78 8.5 -145t30 -131.5t55 -110.5t87 -73.5t122.5 -27.5q147 0 250 109v297 h-282v112h411v-608h-98v115q-7 -9 -14 -17.5t-35.5 -32.5t-59.5 -40.5t-83.5 -30.5t-110.5 -14q-93 0 -165.5 34t-118.5 89.5t-76 133.5t-42 160.5t-12 175.5z" />
<glyph unicode="H" d="M223 0v1143h129v-502h422v502h129v-1143h-129v528h-422v-528h-129z" />
<glyph unicode="I" d="M221 0v113h279v917h-279v113h686v-113h-278v-917h278v-113h-686z" />
<glyph unicode="J" d="M166 362q0 43 4 70h129q-4 -28 -4 -74q0 -122 60.5 -193t191.5 -71q139 0 195.5 82.5t56.5 249.5v717h129v-717q0 -222 -91.5 -334t-287.5 -112q-194 0 -288.5 103t-94.5 279z" />
<glyph unicode="K" d="M223 0v1143h129v-568l506 568h166l-442 -486l491 -657h-162l-411 567l-148 -159v-408h-129z" />
<glyph unicode="L" d="M223 0v1143h129v-1030h586v-113h-715z" />
<glyph unicode="M" d="M154 0v1143h188l145 -416l78 -238l78 238l145 416h185v-1143h-123v731l8 275l-240 -678h-110l-240 678l8 -275v-731h-122z" />
<glyph unicode="N" d="M223 0v1143h178l392 -993l-13 286v707h123v-1143h-178l-391 993l12 -286v-707h-123z" />
<glyph unicode="O" d="M131 567q0 182 47 314.5t146 208t241 75.5q144 0 242 -76.5t143 -206.5t45 -307q0 -276 -110.5 -435.5t-323.5 -159.5q-144 0 -242 75.5t-143 205t-45 306.5zM264 571q0 -477 299 -477t299 477q0 98 -13.5 177.5t-45.5 151t-93 111.5t-147 40t-147 -40t-93 -111.5 t-45.5 -151t-13.5 -177.5z" />
<glyph unicode="P" d="M223 0v1143h303q223 0 345 -87t122 -261q0 -171 -122 -260t-345 -89h-174v-446h-129zM352 559h176q172 0 252 64.5t80 171.5t-80 171t-252 64h-176v-471z" />
<glyph unicode="Q" d="M131 567q0 180 46.5 312.5t146 209t243.5 76.5q143 0 240.5 -76t142.5 -206t45 -308q0 -268 -102 -421l225 -215h-157l-140 131q-104 -90 -260 -90q-144 0 -242.5 76t-143 205.5t-44.5 305.5zM264 571q0 -477 299 -477q106 0 172 60l-307 295h156l217 -209q61 117 61 329 q0 482 -299 482q-86 0 -147 -40t-93 -111.5t-45.5 -151t-13.5 -177.5z" />
<glyph unicode="R" d="M223 0v1143h264q221 0 344 -87.5t123 -252.5q0 -135 -82.5 -220.5t-222.5 -117.5l381 -465h-164l-356 451h-158v-451h-129zM352 559h137q172 0 252 64.5t80 171.5t-80 171t-252 64h-137v-471z" />
<glyph unicode="S" d="M154 319h129q6 -107 78.5 -165t205.5 -58q125 0 201 52t76 149q0 68 -42 112t-130 74l-244 86q-252 88 -252 295q0 144 107 222.5t274 78.5q171 0 274 -84.5t103 -251.5h-127q-2 66 -26.5 112t-64 68t-79 31t-84.5 9q-118 0 -181 -50.5t-63 -132.5q0 -122 156 -178 l244 -86q140 -48 203 -116t63 -181q0 -83 -32 -146.5t-89 -101.5t-130.5 -57.5t-160.5 -19.5q-187 0 -298 86.5t-111 252.5z" />
<glyph unicode="T" d="M106 1030v113h914v-113h-393v-1030h-129v1030h-392z" />
<glyph unicode="U" d="M190 395v748h129v-748q0 -164 55.5 -232.5t188.5 -68.5q135 0 190.5 68.5t55.5 232.5v748h129v-748q0 -220 -91 -317.5t-284 -97.5q-192 0 -282.5 97t-90.5 318z" />
<glyph unicode="V" d="M84 1143h141l209 -621l129 -395l131 395l209 621h139l-399 -1143h-160z" />
<glyph unicode="W" d="M57 1143h133l78 -658l39 -368l187 631h141l186 -631l39 368l78 658h131l-149 -1143h-181l-176 596l-176 -596h-180z" />
<glyph unicode="X" d="M78 0l407 588l-385 555h156l182 -275l123 -186l123 186l182 275h160l-385 -555l408 -588h-156l-205 307l-123 187l-123 -187l-204 -307h-160z" />
<glyph unicode="Y" d="M47 1143h150l184 -279l186 -295l185 295l180 279h149l-452 -684v-459h-129v463z" />
<glyph unicode="Z" d="M168 0v102l631 928h-621v113h772v-103l-633 -927h639v-113h-788z" />
<glyph unicode="[" d="M371 -365v1659h544v-102h-428v-1454h428v-103h-544z" />
<glyph unicode="\" d="M68 1294h125l976 -1659h-125z" />
<glyph unicode="]" d="M211 -262h432v1454h-432v102h545v-1659h-545v103z" />
<glyph unicode="^" d="M201 451l309 692h104l310 -692h-119l-242 563l-241 -563h-121z" />
<glyph unicode="_" d="M76 0h975v-111h-975v111z" />
<glyph unicode="`" d="M401 1395h181l141 -391h-80z" />
<glyph unicode="a" d="M150 227q0 59 20.5 105t53 73.5t78.5 45t92 24t98 6.5q147 0 260 -37v82q0 37 -1.5 63t-7 56t-15 51t-26 41.5t-40 32.5t-58 19.5t-78.5 7.5q-239 0 -239 -205h-121q0 75 24.5 132t61.5 90.5t88.5 54.5t98.5 28.5t98 7.5q335 0 335 -344v-428q0 -26 11 -35.5t41 -9.5 q47 0 110 14v-94q-72 -28 -143 -28q-123 0 -123 116v17q-43 -55 -124 -94t-195 -39q-135 0 -217 61t-82 186zM268 229q0 -139 189 -139q166 0 295 94v168q-109 25 -244 25q-118 0 -179 -33.5t-61 -114.5z" />
<glyph unicode="b" d="M223 0v1294h121v-503q98 114 262 114q75 0 140 -26.5t116.5 -80t81 -144.5t29.5 -210q0 -121 -31 -213t-84 -145t-117.5 -79.5t-138.5 -26.5q-92 0 -164 37t-119 96v-113h-96zM344 186q94 -94 236 -94q136 0 202 93.5t66 256.5t-66 257t-202 94q-141 0 -236 -95v-512z " />
<glyph unicode="c" d="M154 440q0 107 27 191t69 134.5t99.5 83t113 44.5t115.5 12q49 0 95.5 -8t95.5 -30t86 -56t62.5 -90t30.5 -129h-123q-11 110 -74.5 156.5t-168.5 46.5q-306 0 -306 -351q0 -178 78.5 -266t227.5 -88q222 0 243 205h123q-5 -72 -31.5 -129t-64 -91t-88 -56.5t-97.5 -30.5 t-96 -8q-61 0 -116.5 12.5t-112 45.5t-97 83.5t-66 132.5t-25.5 186z" />
<glyph unicode="d" d="M154 438q0 118 29.5 209t80.5 146.5t116 83.5t140 28q159 0 262 -114v503h121v-1294h-96v113q-107 -133 -285 -133q-72 0 -135.5 25t-117 77t-84.5 143.5t-31 212.5zM279 442q0 -163 66 -256.5t202 -93.5q141 0 235 94v512q-95 95 -235 95q-136 0 -202 -94t-66 -257z" />
<glyph unicode="e" d="M154 440q0 102 25 183.5t66 133.5t96.5 86t112 48t117.5 14q58 0 112.5 -13t109.5 -46t95 -83.5t65.5 -132.5t25.5 -186v-28h-705q15 -330 304 -330q115 0 187 52t91 149h121q-12 -86 -54.5 -149t-103.5 -96t-122.5 -47.5t-125.5 -14.5q-85 0 -158 26t-132 79t-93 144 t-34 211zM276 516h578q-34 283 -291 283q-127 0 -200.5 -71t-86.5 -212z" />
<glyph unicode="f" d="M201 0v111h239v663h-239v111h239v16q0 190 127 297t363 107v-111q-61 0 -113 -8.5t-100 -29t-82 -53t-54 -84t-20 -118.5v-16h369v-111h-369v-663h369v-111h-729z" />
<glyph unicode="g" d="M154 440q0 121 30.5 213t83.5 145.5t117.5 80t138.5 26.5q96 0 170 -40.5t113 -92.5v113h96v-928q0 -171 -83.5 -256.5t-289.5 -85.5q-84 0 -148.5 15.5t-115.5 49.5t-77.5 94.5t-26.5 145.5h121q0 -105 59 -153t184 -48q67 0 114.5 13t74.5 34t42.5 55t20 67t4.5 79v127 q-98 -114 -264 -114q-75 0 -139 26.5t-115 80t-80.5 144t-29.5 209.5zM279 442q0 -163 66 -256.5t202 -93.5q141 0 235 94v512q-95 95 -235 95q-136 0 -202 -94t-66 -257z" />
<glyph unicode="h" d="M223 0v1294h121v-499q25 29 49 49t81 40.5t130 20.5q49 0 89.5 -8.5t81 -32t68 -62.5t45 -105t17.5 -154v-543h-121v512q0 148 -43 216.5t-161 68.5q-151 0 -236 -97v-700h-121z" />
<glyph unicode="i" d="M190 0v111h328v663h-328v111h449v-774h301v-111h-750zM496 1128v166h166v-166h-166z" />
<glyph unicode="j" d="M260 -264q61 0 113 8.5t100 29t82 53t54 84t20 118.5v745h-344v111h465v-869q0 -187 -126 -289t-364 -102v111zM606 1128v166h166v-166h-166z" />
<glyph unicode="k" d="M223 0v1294h121v-831l496 422h157l-397 -334l416 -551h-150l-350 481l-172 -143v-338h-121z" />
<glyph unicode="l" d="M190 0v111h314v1073h-314v110h435v-1183h315v-111h-750z" />
<glyph unicode="m" d="M117 0v885h96v-127q34 66 83 106.5t130 40.5q137 0 180 -137q35 62 82 99.5t125 37.5q96 0 147.5 -68.5t51.5 -203.5v-633h-121v580q0 50 -3.5 85t-14 67.5t-32.5 48.5t-55 16q-31 0 -59 -14t-48.5 -37t-32.5 -41.5t-21 -36.5v-668h-121v580q0 50 -3.5 85t-14 67.5 t-32.5 48.5t-55 16q-92 0 -161 -129v-668h-121z" />
<glyph unicode="n" d="M223 0v885h96v-113q91 133 289 133q297 0 297 -362v-543h-121v512q0 148 -43 216.5t-161 68.5q-151 0 -236 -97v-700h-121z" />
<glyph unicode="o" d="M154 440q0 105 24.5 187t64 133.5t94.5 85t111 46.5t117 13q62 0 117.5 -13.5t110 -47t93.5 -84.5t63 -132t24 -184q0 -105 -24.5 -187t-64.5 -133t-95 -84.5t-111 -46.5t-117 -13q-62 0 -117.5 13.5t-109.5 46.5t-93 84t-63 132t-24 184zM279 442q0 -174 72 -262 t212 -88t212.5 88t72.5 262t-72.5 262.5t-212.5 88.5t-212 -88.5t-72 -262.5z" />
<glyph unicode="p" d="M223 -365v1250h96v-113q107 133 285 133q57 0 109 -15t100 -50t83 -87t56 -130.5t21 -176.5q0 -118 -29.5 -209t-81 -146t-116.5 -83t-140 -28q-159 0 -262 114v-459h-121zM344 186q94 -94 236 -94q136 0 202 93.5t66 256.5t-66 257t-202 94q-141 0 -236 -95v-512z" />
<glyph unicode="q" d="M154 440q0 121 30.5 213t83.5 145.5t117.5 80t138.5 26.5q97 0 170 -40.5t113 -92.5v113h96v-1250h-121v459q-98 -114 -264 -114q-75 0 -139 26.5t-115 80t-80.5 144t-29.5 209.5zM279 442q0 -163 66 -256.5t202 -93.5q141 0 235 94v512q-95 95 -235 95q-136 0 -202 -94 t-66 -257z" />
<glyph unicode="r" d="M190 0v111h236v663h-236v111h332v-191q35 89 111 150t198 61q83 0 154 -26v-123q-70 26 -147 26q-107 0 -181.5 -51.5t-109.5 -120.5v-499h393v-111h-750z" />
<glyph unicode="s" d="M174 281h119q21 -191 299 -191q235 0 235 143q0 32 -14 56.5t-31 39.5t-61.5 31t-74.5 23.5t-100 24.5q-9 2 -14 3.5t-13 3t-15 3.5q-60 14 -96.5 24.5t-80 30t-67.5 43t-40.5 60t-16.5 83.5q0 125 97 185.5t257 60.5q81 0 146 -15.5t116.5 -48t82 -86.5t36.5 -128h-119 q-9 52 -36 87.5t-67 52t-77.5 22.5t-83.5 6q-229 0 -229 -127q0 -18 4 -33t14.5 -27.5t21.5 -22t31.5 -18t37 -14.5t45.5 -13.5t51 -12t59 -13t63 -14.5q76 -18 123 -35.5t90.5 -46t63.5 -71.5t20 -103q0 -72 -28.5 -124t-80 -82t-115 -44t-142.5 -14q-186 0 -293.5 76.5 t-116.5 224.5z" />
<glyph unicode="t" d="M106 774v111h295v409h121v-409h434v-111h-434v-403q0 -154 44.5 -217.5t164.5 -63.5q95 0 203 33v-111q-91 -32 -207 -32q-83 0 -140.5 17.5t-101 59t-64 114t-20.5 179.5v424h-295z" />
<glyph unicode="u" d="M223 342v543h121v-512q0 -148 43.5 -216.5t161.5 -68.5q151 0 235 96v701h121v-885h-96v113q-91 -133 -289 -133q-297 0 -297 362z" />
<glyph unicode="v" d="M115 885h133l313 -768l311 768h132l-377 -885h-135z" />
<glyph unicode="w" d="M76 885h121l120 -772l179 581h135l178 -581l123 772h119l-154 -885h-160l-174 565l-174 -565h-160z" />
<glyph unicode="x" d="M92 0l397 455l-378 430h149l305 -353l303 353h146l-377 -432l399 -453h-149l-328 375l-321 -375h-146z" />
<glyph unicode="y" d="M115 885h133l313 -768l311 768h132l-381 -895q-86 -201 -197.5 -283t-296.5 -82v111q139 0 222.5 60t142.5 200z" />
<glyph unicode="z" d="M190 0v90l570 684h-559v111h727v-90l-570 -682h580v-113h-748z" />
<glyph unicode="{" d="M182 414v102q135 0 188.5 40t47.5 146l-17 277q-10 171 83.5 243t293.5 72h137v-102h-137q-56 0 -90.5 -3t-72 -16t-57 -37t-31 -66.5t-7.5 -104.5l19 -295q4 -81 -37.5 -137.5t-112.5 -67.5q71 -12 112.5 -68t37.5 -137l-19 -295q-4 -62 7.5 -104.5t31 -66.5t57 -37 t72 -16t90.5 -3h137v-103h-137q-200 0 -293.5 72.5t-83.5 243.5l17 276q6 107 -47.5 147t-188.5 40z" />
<glyph unicode="|" d="M508 -365v1659h113v-1659h-113z" />
<glyph unicode="}" d="M211 -262h137q56 0 90.5 3t72 16t57 37t31 66.5t7.5 104.5l-18 295q-4 82 35.5 136.5t111.5 68.5q-70 11 -111.5 67.5t-35.5 137.5l18 295q4 62 -7.5 104.5t-31 66.5t-57 37t-72 16t-90.5 3h-137v102h137q200 0 293.5 -72t83.5 -243l-16 -277q-6 -107 47 -146.5 t188 -39.5v-102q-135 0 -188 -40t-47 -147l16 -276q10 -171 -83.5 -243.5t-293.5 -72.5h-137v103z" />
<glyph unicode="~" d="M123 932q11 39 29.5 76t46 74t67 60t84.5 23q50 0 138 -35.5t170 -70.5t120 -35q91 0 158 141l68 -28q-11 -39 -29.5 -76.5t-46 -74.5t-67.5 -60t-85 -23q-50 0 -138 35.5t-170 70.5t-120 35q-91 0 -158 -141z" />
<glyph unicode="&#xa0;" />
<glyph unicode="&#xa1;" d="M459 674v211h209v-211h-209zM498 98l28 391h76l29 -391v-356h-133v356z" />
<glyph unicode="&#xa2;" d="M125 569q0 98 22.5 179t59 134.5t86.5 92t102 58.5t109 28v184h117v-180q63 -5 121.5 -26t111 -59.5t87 -103t40.5 -147.5h-115q-9 95 -78.5 156t-166.5 67v-762q101 9 166.5 66.5t78.5 157.5h115q-5 -65 -28 -119t-57.5 -91t-80.5 -64t-94 -41t-100 -19v-182h-117v184 q-58 7 -110.5 26.5t-102.5 58t-86 91.5t-58 133t-22 178zM246 571q0 -161 68.5 -256.5t189.5 -119.5v755q-118 -15 -188 -115.5t-70 -263.5z" />
<glyph unicode="&#xa3;" d="M199 0v113q211 41 211 194q0 12 -7 70l-22 190h-182v111h170q-4 50 -4 78q0 78 23 140t57 102.5t88 70.5t103 45.5t115.5 24.5t112 11t105.5 3v-111q-65 -2 -108 -4t-98 -9.5t-90 -20t-73 -34.5t-59 -52.5t-35 -75t-14 -101.5q0 -27 4 -67h323v-111h-311l24 -200 q5 -40 5 -60q0 -64 -33 -116t-92 -80h579v-111h-792z" />
<glyph unicode="&#xa4;" d="M154 227l161 162q-53 71 -53 178t53 178l-161 162l73 74l158 -160q86 49 178 49t178 -49l158 160l74 -74l-162 -162q53 -71 53 -178t-53 -178l162 -162l-74 -73l-158 159q-86 -49 -178 -49t-178 49l-158 -159zM383 567q0 -92 48.5 -146t131.5 -54t131.5 54t48.5 146 t-48.5 146.5t-131.5 54.5t-131.5 -54.5t-48.5 -146.5z" />
<glyph unicode="&#xa5;" d="M47 1143h150l184 -279l182 -291h6l183 291l180 279h149l-376 -570h239v-112h-315v-348h315v-113h-758v113h314v348h-314v112h240z" />
<glyph unicode="&#xa6;" d="M508 293h113v-658h-113v658zM508 639v655h113v-655h-113z" />
<glyph unicode="&#xa7;" d="M135 389q0 136 162 238q-117 81 -117 229q0 140 101.5 224.5t265.5 84.5q50 0 95.5 -8t92 -29.5t80 -54t55 -87t21.5 -124.5h-121q0 100 -61.5 150.5t-167.5 50.5q-119 0 -178.5 -57.5t-59.5 -141.5q0 -89 65.5 -135.5t186.5 -73.5l195 -43q247 -55 247 -221 q0 -138 -163 -237q118 -84 118 -230q0 -142 -110.5 -225.5t-304.5 -83.5q-80 0 -146 15.5t-122 49t-87.5 95t-31.5 145.5h120q0 -93 70 -147t207 -54q140 0 211 55.5t71 143.5q0 60 -35 102.5t-86.5 65t-129.5 39.5l-195 43q-248 55 -248 221zM258 412q0 -54 49.5 -85 t163.5 -57l180 -41q52 -13 94 -30q129 80 129 170q0 53 -49 84t-163 57l-181 41q-35 8 -96 29q-127 -77 -127 -168z" />
<glyph unicode="&#xa8;" d="M276 1128v166h166v-166h-166zM688 1128v166h166v-166h-166z" />
<glyph unicode="&#xa9;" d="M57 571q0 142 82 303l137 269h109l-133 -283q-78 -167 -78 -289q0 -121 78 -288l133 -283h-109l-137 268q-82 161 -82 303zM313 573q0 153 66 232.5t178 79.5q96 0 158.5 -57t62.5 -171h-116q0 53 -25.5 84t-77.5 31q-129 0 -129 -201q0 -200 129 -200q52 0 77.5 30.5 t25.5 83.5h116q0 -113 -66 -170t-159 -57q-109 0 -174.5 81t-65.5 234zM741 0l133 283q78 167 78 288q0 122 -78 289l-133 283h109l137 -269q82 -161 82 -303t-82 -303l-137 -268h-109z" />
<glyph unicode="&#xaa;" d="M274 659q0 47 16 83t40.5 57t59 34.5t67 18t69.5 4.5q106 0 195 -35v64q0 43 -6 74t-22 60.5t-49.5 44.5t-84.5 15q-85 0 -130.5 -41.5t-45.5 -117.5h-96q0 72 26 123t70 76t87.5 35.5t92.5 10.5q125 0 189.5 -67t64.5 -191v-319q0 -17 7 -24t24 -7q34 0 88 12v-73 q-62 -25 -117 -25q-88 0 -88 92v15q-31 -40 -92 -73.5t-150 -33.5q-97 0 -156 46.5t-59 141.5zM293 274v86h577v-86h-577zM375 662q0 -101 129 -101q118 0 217 76v113q-70 18 -180 18q-166 0 -166 -106z" />
<glyph unicode="&#xab;" d="M145 475l310 356h129l-297 -356l297 -356h-129zM543 475l309 356h129l-297 -356l297 -356h-129z" />
<glyph unicode="&#xac;" d="M289 389v111h549v-379h-125v268h-424z" />
<glyph unicode="&#xad;" d="M266 516v113h594v-113h-594z" />
<glyph unicode="&#xae;" d="M57 571q0 142 82 303l137 269h109l-133 -283q-78 -167 -78 -289q0 -121 78 -288l133 -283h-109l-137 268q-82 161 -82 303zM356 272v598h172q113 0 170.5 -49.5t57.5 -134.5q0 -73 -38.5 -114.5t-96.5 -55.5l186 -244h-137l-160 220h-41v-220h-113zM469 590h53 q56 0 87.5 24t31.5 66q0 41 -31 63.5t-88 22.5h-53v-176zM741 0l133 283q78 167 78 288q0 122 -78 289l-133 283h109l137 -269q82 -161 82 -303t-82 -303l-137 -268h-109z" />
<glyph unicode="&#xaf;" d="M293 1126v111h543v-111h-543z" />
<glyph unicode="&#xb0;" d="M252 852q0 137 90.5 225t220.5 88q131 0 221 -88t90 -225q0 -136 -90 -223.5t-221 -87.5q-130 0 -220.5 87.5t-90.5 223.5zM379 852q0 -89 51 -145t133 -56q83 0 134 55.5t51 145.5q0 91 -51 147t-134 56q-82 0 -133 -56t-51 -147z" />
<glyph unicode="&#xb1;" d="M113 0v111h903v-111h-903zM113 647v111h393v385h117v-385h393v-111h-393v-389h-117v389h-393z" />
<glyph unicode="&#xb2;" d="M344 537v65q0 67 37 109t102 77l105 56q94 50 94 135q0 106 -111 106q-127 0 -127 -145h-88q0 120 60 172.5t155 52.5q96 0 149.5 -48t53.5 -132q0 -130 -137 -205l-105 -57q-55 -31 -73.5 -53t-18.5 -58h340v-75h-436z" />
<glyph unicode="&#xb3;" d="M342 766h88q0 -150 133 -150q57 0 92 27.5t35 75.5q0 46 -34.5 72t-90.5 26h-41v74h41q51 0 81 28t30 72q0 45 -30.5 70.5t-82.5 25.5q-127 0 -127 -147h-88q0 118 62 171.5t157 53.5t148 -47t53 -119q0 -48 -23 -85t-57 -58q40 -17 67 -52.5t27 -88.5 q0 -79 -59.5 -128.5t-157.5 -49.5q-44 0 -82 11.5t-70.5 36.5t-51.5 71.5t-19 109.5z" />
<glyph unicode="&#xb4;" d="M401 1004l142 391h180l-242 -391h-80z" />
<glyph unicode="&#xb5;" d="M223 -365v1250h121v-774h172q83 0 143 27t93 67v680h120v-752q0 -26 11 -35.5t41 -9.5q47 0 110 14v-94q-72 -28 -143 -28q-123 0 -123 116v31q-27 -49 -96.5 -88t-179.5 -39h-148v-365h-121z" />
<glyph unicode="&#xb6;" d="M96 793q0 93 39 163.5t103.5 109.5t137.5 58t152 19h103v-1508h-113v811q-80 0 -152.5 19.5t-134 59t-98.5 108.5t-37 160zM213 795q0 -126 83.5 -186t221.5 -60v491q-138 0 -221.5 -60t-83.5 -185zM817 -365v1508h113v-1508h-113z" />
<glyph unicode="&#xb7;" d="M459 467v209h209v-209h-209z" />
<glyph unicode="&#xb8;" d="M385 -342l21 70q52 -25 104 -25q40 0 62 14t22 35q0 20 -18.5 37.5t-48.5 29.5t-51.5 18.5t-41.5 10.5l33 152h80l-19 -92q187 -56 187 -162q0 -57 -45.5 -94t-128.5 -37q-92 0 -156 43z" />
<glyph unicode="&#xb9;" d="M367 537v73h159v434q-38 -38 -129 -38h-30v75h39q56 0 87.5 13.5t51.5 48.5h69v-533h144v-73h-391z" />
<glyph unicode="&#xba;" d="M258 813q0 82 18.5 145t48 101.5t71 63t83 33.5t88.5 9q48 0 89.5 -9.5t81 -33.5t68 -62t45.5 -99t17 -140q0 -82 -18.5 -145t-48 -101t-71.5 -62t-84 -33t-89 -9q-46 0 -85.5 8.5t-80 32t-69 60.5t-46.5 98.5t-18 142.5zM272 274v86h586v-86h-586zM354 817 q0 -129 54.5 -195.5t154.5 -66.5t154.5 66.5t54.5 195.5t-54.5 196.5t-154.5 67.5t-154.5 -67.5t-54.5 -196.5z" />
<glyph unicode="&#xbb;" d="M145 119l297 356l-297 356h129l310 -356l-310 -356h-129zM543 119l297 356l-297 356h129l309 -356l-309 -356h-129z" />
<glyph unicode="&#xbc;" d="M51 537v73h160v434q-38 -38 -129 -38h-31v75h39q56 0 87.5 13.5t51.5 48.5h70v-533h143v-73h-391zM215 0l698 1143h105l-699 -1143h-104zM571 145v64l318 395h92v-385h94v-74h-94v-145h-88v145h-322zM678 219h215v266z" />
<glyph unicode="&#xbd;" d="M51 537v73h160v434q-38 -38 -129 -38h-31v75h39q56 0 87.5 13.5t51.5 48.5h70v-533h143v-73h-391zM174 0l698 1143h105l-698 -1143h-105zM643 0v66q0 67 37 109t102 77l105 55q94 50 94 135q0 107 -111 107q-127 0 -127 -146h-88q0 120 60 173t155 53q96 0 149.5 -48 t53.5 -132q0 -130 -137 -205l-105 -58q-55 -31 -73.5 -53t-18.5 -57h340v-76h-436z" />
<glyph unicode="&#xbe;" d="M57 766h88q0 -76 35 -113t99 -37q57 0 92 27.5t35 75.5q0 46 -34.5 72t-90.5 26h-41v74h41q51 0 80.5 28t29.5 72q0 45 -30 70.5t-82 25.5q-127 0 -127 -147h-89q0 118 62.5 171.5t157.5 53.5t147.5 -47t52.5 -119q0 -48 -23 -85t-57 -58q40 -17 67.5 -52.5t27.5 -88.5 q0 -79 -59.5 -128.5t-157.5 -49.5q-44 0 -82 11.5t-71 36.5t-52 71.5t-19 109.5zM203 0l698 1143h105l-699 -1143h-104zM571 145v64l318 395h92v-385h94v-74h-94v-145h-88v145h-322zM678 219h215v266z" />
<glyph unicode="&#xbf;" d="M180 29q0 122 93 226t309 249l59 -68q-198 -158 -265 -240.5t-67 -162.5q0 -88 64.5 -144.5t206.5 -56.5q129 0 198.5 50.5t69.5 150.5h123q0 -84 -32 -146t-89 -98t-125.5 -53t-149.5 -17q-194 0 -294.5 88.5t-100.5 221.5zM479 676v209h209v-209h-209z" />
<glyph unicode="&#xc0;" d="M86 0l406 1143h143l405 -1143h-143l-96 285h-477l-99 -285h-139zM340 1614h180l142 -391h-80zM358 397h404l-201 596z" />
<glyph unicode="&#xc1;" d="M86 0l406 1143h143l405 -1143h-143l-96 285h-477l-99 -285h-139zM358 397h404l-201 596zM467 1223l141 391h180l-241 -391h-80z" />
<glyph unicode="&#xc2;" d="M86 0l406 1143h143l405 -1143h-143l-96 285h-477l-99 -285h-139zM305 1223l182 391h152l182 -391h-82l-176 252l-176 -252h-82zM358 397h404l-201 596z" />
<glyph unicode="&#xc3;" d="M86 0l406 1143h143l405 -1143h-143l-96 285h-477l-99 -285h-139zM209 1315q37 99 94.5 166t130.5 67q35 0 72 -21t62.5 -45.5t56.5 -45.5t55 -21q82 0 149 133l66 -30q-37 -100 -94.5 -167t-130.5 -67q-35 0 -72 21t-62.5 45.5t-56.5 45.5t-55 21q-43 0 -82 -37.5 t-68 -95.5zM358 397h404l-201 596z" />
<glyph unicode="&#xc4;" d="M86 0l406 1143h143l405 -1143h-143l-96 285h-477l-99 -285h-139zM274 1348v165h166v-165h-166zM358 397h404l-201 596zM686 1348v165h166v-165h-166z" />
<glyph unicode="&#xc5;" d="M86 0l406 1143h143l405 -1143h-143l-96 285h-477l-99 -285h-139zM305 1454q0 106 75 180t183 74t183 -74t75 -180t-75 -180t-183 -74t-183 74t-75 180zM358 397h404l-201 596zM395 1454q0 -70 48.5 -119t119.5 -49t119.5 49t48.5 119t-48.5 119t-119.5 49t-119.5 -49 t-48.5 -119z" />
<glyph unicode="&#xc6;" d="M51 0l209 1143h739v-113h-358v-389h277v-113h-277v-415h358v-113h-487v528h-236l-94 -528h-131zM297 641h215v389h-147z" />
<glyph unicode="&#xc7;" d="M131 569q0 291 118 443.5t345 152.5q57 0 108 -9t104 -34.5t92 -65t65.5 -105.5t29.5 -152h-129q-30 256 -272 256q-80 0 -140 -28.5t-95 -73.5t-56.5 -110.5t-29 -129.5t-7.5 -142t7.5 -141.5t29 -129t56.5 -110t95 -72.5t140 -28q242 0 272 256h129q-4 -100 -41 -174 t-96.5 -114.5t-127 -59t-144.5 -18.5l-15 -72q187 -56 187 -162q0 -57 -45.5 -94t-128.5 -37q-92 0 -156 43l20 70q52 -25 105 -25q40 0 62 14t22 35q0 20 -18.5 37.5t-48.5 29.5t-51.5 18.5t-41.5 10.5l29 138q-183 25 -278 173t-95 410z" />
<glyph unicode="&#xc8;" d="M223 0v1143h705v-113h-576v-389h506v-113h-506v-415h576v-113h-705zM358 1614h181l141 -391h-80z" />
<glyph unicode="&#xc9;" d="M223 0v1143h705v-113h-576v-389h506v-113h-506v-415h576v-113h-705zM485 1223l142 391h180l-242 -391h-80z" />
<glyph unicode="&#xca;" d="M223 0v1143h705v-113h-576v-389h506v-113h-506v-415h576v-113h-705zM324 1223l182 391h151l183 -391h-82l-176 252l-176 -252h-82z" />
<glyph unicode="&#xcb;" d="M223 0v1143h705v-113h-576v-389h506v-113h-506v-415h576v-113h-705zM295 1348v165h166v-165h-166zM707 1348v165h165v-165h-165z" />
<glyph unicode="&#xcc;" d="M221 0v113h279v917h-279v113h686v-113h-278v-917h278v-113h-686zM340 1614h180l142 -391h-80z" />
<glyph unicode="&#xcd;" d="M221 0v113h279v917h-279v113h686v-113h-278v-917h278v-113h-686zM467 1223l141 391h180l-241 -391h-80z" />
<glyph unicode="&#xce;" d="M221 0v113h279v917h-279v113h686v-113h-278v-917h278v-113h-686zM305 1223l182 391h152l182 -391h-82l-176 252l-176 -252h-82z" />
<glyph unicode="&#xcf;" d="M221 0v113h279v917h-279v113h686v-113h-278v-917h278v-113h-686zM276 1348v165h166v-165h-166zM688 1348v165h166v-165h-166z" />
<glyph unicode="&#xd0;" d="M123 537v112h100v494h303q78 0 142.5 -15.5t112 -42.5t84.5 -68t61.5 -88.5t40 -106t22 -119t6.5 -130.5q0 -101 -14 -184t-47.5 -156.5t-86 -124t-134 -79.5t-187.5 -29h-303v537h-100zM352 113h174q64 0 115 15.5t86 40t60 62.5t39.5 76t22.5 87t10.5 88.5t2.5 88.5 t-2.5 88.5t-10.5 89t-22.5 87.5t-39.5 75.5t-60 62.5t-86 40.5t-115 15.5h-174v-381h246v-112h-246v-424z" />
<glyph unicode="&#xd1;" d="M221 1315q37 99 94.5 166t130.5 67q35 0 72 -21t62.5 -45.5t56.5 -45.5t55 -21q43 0 82 37.5t68 95.5l65 -30q-37 -100 -94.5 -167t-130.5 -67q-35 0 -72 21t-62.5 45.5t-56.5 45.5t-55 21q-82 0 -149 -133zM223 0v1143h178l392 -993l-13 286v707h123v-1143h-178 l-391 993l12 -286v-707h-123z" />
<glyph unicode="&#xd2;" d="M131 567q0 182 47 314.5t146 208t241 75.5q144 0 242 -76.5t143 -206.5t45 -307q0 -276 -110.5 -435.5t-323.5 -159.5q-144 0 -242 75.5t-143 205t-45 306.5zM264 571q0 -477 299 -477t299 477q0 98 -13.5 177.5t-45.5 151t-93 111.5t-147 40t-147 -40t-93 -111.5 t-45.5 -151t-13.5 -177.5zM340 1614h180l142 -391h-80z" />
<glyph unicode="&#xd3;" d="M131 567q0 182 47 314.5t146 208t241 75.5q144 0 242 -76.5t143 -206.5t45 -307q0 -276 -110.5 -435.5t-323.5 -159.5q-144 0 -242 75.5t-143 205t-45 306.5zM264 571q0 -477 299 -477t299 477q0 98 -13.5 177.5t-45.5 151t-93 111.5t-147 40t-147 -40t-93 -111.5 t-45.5 -151t-13.5 -177.5zM467 1223l141 391h180l-241 -391h-80z" />
<glyph unicode="&#xd4;" d="M131 567q0 182 47 314.5t146 208t241 75.5q144 0 242 -76.5t143 -206.5t45 -307q0 -276 -110.5 -435.5t-323.5 -159.5q-144 0 -242 75.5t-143 205t-45 306.5zM264 571q0 -477 299 -477t299 477q0 98 -13.5 177.5t-45.5 151t-93 111.5t-147 40t-147 -40t-93 -111.5 t-45.5 -151t-13.5 -177.5zM305 1223l182 391h152l182 -391h-82l-176 252l-176 -252h-82z" />
<glyph unicode="&#xd5;" d="M131 567q0 182 47 314.5t146 208t241 75.5q144 0 242 -76.5t143 -206.5t45 -307q0 -276 -110.5 -435.5t-323.5 -159.5q-144 0 -242 75.5t-143 205t-45 306.5zM209 1315q37 99 94.5 166t130.5 67q35 0 72 -21t62.5 -45.5t56.5 -45.5t55 -21q82 0 149 133l66 -30 q-37 -100 -94.5 -167t-130.5 -67q-35 0 -72 21t-62.5 45.5t-56.5 45.5t-55 21q-43 0 -82 -37.5t-68 -95.5zM264 571q0 -477 299 -477t299 477q0 98 -13.5 177.5t-45.5 151t-93 111.5t-147 40t-147 -40t-93 -111.5t-45.5 -151t-13.5 -177.5z" />
<glyph unicode="&#xd6;" d="M131 567q0 182 47 314.5t146 208t241 75.5q144 0 242 -76.5t143 -206.5t45 -307q0 -276 -110.5 -435.5t-323.5 -159.5q-144 0 -242 75.5t-143 205t-45 306.5zM264 571q0 -477 299 -477t299 477q0 98 -13.5 177.5t-45.5 151t-93 111.5t-147 40t-147 -40t-93 -111.5 t-45.5 -151t-13.5 -177.5zM276 1348v165h166v-165h-166zM688 1348v165h166v-165h-166z" />
<glyph unicode="&#xd7;" d="M102 61l383 381l-383 381l80 82l381 -381l381 381l80 -82l-383 -381l383 -381l-80 -81l-381 380l-381 -380z" />
<glyph unicode="&#xd8;" d="M-25 0l211 233q-55 140 -55 336q0 274 111 435t323 161q210 0 320 -157l121 135h145l-211 -236q55 -137 55 -334q0 -274 -111 -433.5t-325 -159.5q-208 0 -317 153l-121 -133h-146zM264 571q0 -126 23 -227l510 567q-75 140 -234 140q-86 0 -147 -40t-93 -111.5 t-45.5 -151t-13.5 -177.5zM330 231q73 -137 233 -137q299 0 299 477q0 130 -22 226z" />
<glyph unicode="&#xd9;" d="M190 395v748h129v-748q0 -164 55.5 -232.5t188.5 -68.5q135 0 190.5 68.5t55.5 232.5v748h129v-748q0 -220 -91 -317.5t-284 -97.5q-192 0 -282.5 97t-90.5 318zM340 1614h180l142 -391h-80z" />
<glyph unicode="&#xda;" d="M190 395v748h129v-748q0 -164 55.5 -232.5t188.5 -68.5q135 0 190.5 68.5t55.5 232.5v748h129v-748q0 -220 -91 -317.5t-284 -97.5q-192 0 -282.5 97t-90.5 318zM467 1223l141 391h180l-241 -391h-80z" />
<glyph unicode="&#xdb;" d="M190 395v748h129v-748q0 -164 55.5 -232.5t188.5 -68.5q135 0 190.5 68.5t55.5 232.5v748h129v-748q0 -220 -91 -317.5t-284 -97.5q-192 0 -282.5 97t-90.5 318zM305 1223l182 391h152l182 -391h-82l-176 252l-176 -252h-82z" />
<glyph unicode="&#xdc;" d="M190 395v748h129v-748q0 -164 55.5 -232.5t188.5 -68.5q135 0 190.5 68.5t55.5 232.5v748h129v-748q0 -220 -91 -317.5t-284 -97.5q-192 0 -282.5 97t-90.5 318zM276 1348v165h166v-165h-166zM688 1348v165h166v-165h-166z" />
<glyph unicode="&#xdd;" d="M47 1143h150l184 -279l186 -295l185 295l180 279h149l-452 -684v-459h-129v463zM467 1223l141 391h180l-241 -391h-80z" />
<glyph unicode="&#xde;" d="M223 0v1143h129v-228h174q223 0 345 -87t122 -261q0 -171 -122 -259.5t-345 -88.5h-174v-219h-129zM352 332h176q172 0 252 64t80 171t-80 171.5t-252 64.5h-176v-471z" />
<glyph unicode="&#xdf;" d="M207 0v891q0 214 97.5 319t273.5 105q172 0 264 -91.5t92 -234.5q0 -82 -30.5 -153t-79.5 -119t-96 -78t-95 -49q41 -17 83 -40.5t91 -60.5t85.5 -78t61.5 -96.5t25 -113.5t-24 -102.5t-65 -69.5t-90.5 -37t-107.5 -12q-126 0 -205 47v114q100 -51 197 -51q86 0 128 34 t42 93q0 95 -104.5 180t-262.5 148v94q159 46 241.5 134t82.5 212q0 106 -59.5 164.5t-176.5 58.5q-129 0 -188 -75.5t-59 -235.5v-897h-121z" />
<glyph unicode="&#xe0;" d="M150 227q0 59 20.5 105t53 73.5t78.5 45t92 24t98 6.5q147 0 260 -37v82q0 37 -1.5 63t-7 56t-15 51t-26 41.5t-40 32.5t-58 19.5t-78.5 7.5q-239 0 -239 -205h-121q0 75 24.5 132t61.5 90.5t88.5 54.5t98.5 28.5t98 7.5q335 0 335 -344v-428q0 -26 11 -35.5t41 -9.5 q47 0 110 14v-94q-72 -28 -143 -28q-123 0 -123 116v17q-43 -55 -124 -94t-195 -39q-135 0 -217 61t-82 186zM268 229q0 -139 189 -139q166 0 295 94v168q-109 25 -244 25q-118 0 -179 -33.5t-61 -114.5zM332 1395h180l141 -391h-80z" />
<glyph unicode="&#xe1;" d="M150 227q0 59 20.5 105t53 73.5t78.5 45t92 24t98 6.5q147 0 260 -37v82q0 37 -1.5 63t-7 56t-15 51t-26 41.5t-40 32.5t-58 19.5t-78.5 7.5q-239 0 -239 -205h-121q0 75 24.5 132t61.5 90.5t88.5 54.5t98.5 28.5t98 7.5q335 0 335 -344v-428q0 -26 11 -35.5t41 -9.5 q47 0 110 14v-94q-72 -28 -143 -28q-123 0 -123 116v17q-43 -55 -124 -94t-195 -39q-135 0 -217 61t-82 186zM268 229q0 -139 189 -139q166 0 295 94v168q-109 25 -244 25q-118 0 -179 -33.5t-61 -114.5zM459 1004l141 391h180l-241 -391h-80z" />
<glyph unicode="&#xe2;" d="M150 227q0 59 20.5 105t53 73.5t78.5 45t92 24t98 6.5q147 0 260 -37v82q0 37 -1.5 63t-7 56t-15 51t-26 41.5t-40 32.5t-58 19.5t-78.5 7.5q-239 0 -239 -205h-121q0 75 24.5 132t61.5 90.5t88.5 54.5t98.5 28.5t98 7.5q335 0 335 -344v-428q0 -26 11 -35.5t41 -9.5 q47 0 110 14v-94q-72 -28 -143 -28q-123 0 -123 116v17q-43 -55 -124 -94t-195 -39q-135 0 -217 61t-82 186zM268 229q0 -139 189 -139q166 0 295 94v168q-109 25 -244 25q-118 0 -179 -33.5t-61 -114.5zM297 1004l182 391h152l182 -391h-82l-176 251l-176 -251h-82z" />
<glyph unicode="&#xe3;" d="M150 227q0 59 20.5 105t53 73.5t78.5 45t92 24t98 6.5q147 0 260 -37v82q0 37 -1.5 63t-7 56t-15 51t-26 41.5t-40 32.5t-58 19.5t-78.5 7.5q-239 0 -239 -205h-121q0 75 24.5 132t61.5 90.5t88.5 54.5t98.5 28.5t98 7.5q335 0 335 -344v-428q0 -26 11 -35.5t41 -9.5 q47 0 110 14v-94q-72 -28 -143 -28q-123 0 -123 116v17q-43 -55 -124 -94t-195 -39q-135 0 -217 61t-82 186zM201 1096q37 99 94.5 166t130.5 67q35 0 72 -21t62.5 -45.5t56.5 -45.5t55 -21q82 0 149 133l66 -31q-37 -99 -94.5 -166t-130.5 -67q-35 0 -72 21t-62.5 45.5 t-56.5 45.5t-55 21q-43 0 -82 -37.5t-68 -95.5zM268 229q0 -139 189 -139q166 0 295 94v168q-109 25 -244 25q-118 0 -179 -33.5t-61 -114.5z" />
<glyph unicode="&#xe4;" d="M150 227q0 59 20.5 105t53 73.5t78.5 45t92 24t98 6.5q147 0 260 -37v82q0 37 -1.5 63t-7 56t-15 51t-26 41.5t-40 32.5t-58 19.5t-78.5 7.5q-239 0 -239 -205h-121q0 75 24.5 132t61.5 90.5t88.5 54.5t98.5 28.5t98 7.5q335 0 335 -344v-428q0 -26 11 -35.5t41 -9.5 q47 0 110 14v-94q-72 -28 -143 -28q-123 0 -123 116v17q-43 -55 -124 -94t-195 -39q-135 0 -217 61t-82 186zM268 229q0 -139 189 -139q166 0 295 94v168q-109 25 -244 25q-118 0 -179 -33.5t-61 -114.5zM268 1128v166h166v-166h-166zM680 1128v166h166v-166h-166z" />
<glyph unicode="&#xe5;" d="M150 227q0 59 20.5 105t53 73.5t78.5 45t92 24t98 6.5q147 0 260 -37v82q0 37 -1.5 63t-7 56t-15 51t-26 41.5t-40 32.5t-58 19.5t-78.5 7.5q-239 0 -239 -205h-121q0 75 24.5 132t61.5 90.5t88.5 54.5t98.5 28.5t98 7.5q335 0 335 -344v-428q0 -26 11 -35.5t41 -9.5 q47 0 110 14v-94q-72 -28 -143 -28q-123 0 -123 116v17q-43 -55 -124 -94t-195 -39q-135 0 -217 61t-82 186zM268 229q0 -139 189 -139q166 0 295 94v168q-109 25 -244 25q-118 0 -179 -33.5t-61 -114.5zM297 1235q0 106 75 180t183 74t183 -74t75 -180t-75 -180t-183 -74 t-183 74t-75 180zM387 1235q0 -71 48.5 -119.5t119.5 -48.5t119.5 48.5t48.5 119.5t-48.5 119.5t-119.5 48.5t-119.5 -48.5t-48.5 -119.5z" />
<glyph unicode="&#xe6;" d="M31 238q0 67 24 116t66 75.5t89 38t101 11.5q118 0 193 -30v112q0 107 -43 172.5t-135 65.5q-82 0 -119 -53.5t-37 -143.5h-109q0 136 72 219.5t203 83.5q56 0 100 -16.5t70.5 -43.5t41.5 -50t23 -47q7 19 23 42t44 50.5t73.5 46t99.5 18.5q137 0 211 -117.5t74 -347.5 v-6h-480q2 -171 52.5 -260.5t148.5 -89.5q82 0 122 58.5t40 144.5h115q-5 -133 -77 -220t-200 -87q-159 0 -244 135q-35 -59 -103.5 -97t-164.5 -38q-129 0 -201.5 69t-72.5 189zM150 238q0 -74 43 -113t120 -39q72 0 132.5 29t97.5 67q-33 83 -41 178q-71 21 -168 21 q-95 0 -139.5 -34.5t-44.5 -108.5zM621 535h358q-11 131 -50.5 198.5t-125.5 67.5q-159 0 -182 -266z" />
<glyph unicode="&#xe7;" d="M154 440q0 107 27 191t69 134.5t99.5 83t113 44.5t115.5 12q49 0 95.5 -8t95.5 -30t86 -56t62.5 -90t30.5 -129h-123q-11 110 -74.5 156.5t-168.5 46.5q-306 0 -306 -351q0 -178 78.5 -266t227.5 -88q222 0 243 205h123q-5 -70 -29.5 -125t-59.5 -89t-82 -57t-91.5 -32.5 t-93.5 -11.5l-14 -72q186 -55 186 -162q0 -57 -45.5 -94t-128.5 -37q-92 0 -156 43l21 70q52 -25 104 -25q40 0 62 14t22 35q0 20 -18.5 37.5t-48.5 29.5t-51.5 18.5t-41.5 10.5l29 136q-56 6 -105 23t-96.5 52t-81.5 84.5t-54.5 126t-20.5 170.5z" />
<glyph unicode="&#xe8;" d="M154 440q0 102 25 183.5t66 133.5t96.5 86t112 48t117.5 14q58 0 112.5 -13t109.5 -46t95 -83.5t65.5 -132.5t25.5 -186v-28h-705q15 -330 304 -330q115 0 187 52t91 149h121q-12 -86 -54.5 -149t-103.5 -96t-122.5 -47.5t-125.5 -14.5q-85 0 -158 26t-132 79t-93 144 t-34 211zM276 516h578q-34 283 -291 283q-127 0 -200.5 -71t-86.5 -212zM319 1395h181l141 -391h-80z" />
<glyph unicode="&#xe9;" d="M154 440q0 102 25 183.5t66 133.5t96.5 86t112 48t117.5 14q58 0 112.5 -13t109.5 -46t95 -83.5t65.5 -132.5t25.5 -186v-28h-705q15 -330 304 -330q115 0 187 52t91 149h121q-12 -86 -54.5 -149t-103.5 -96t-122.5 -47.5t-125.5 -14.5q-85 0 -158 26t-132 79t-93 144 t-34 211zM276 516h578q-34 283 -291 283q-127 0 -200.5 -71t-86.5 -212zM446 1004l142 391h180l-242 -391h-80z" />
<glyph unicode="&#xea;" d="M154 440q0 102 25 183.5t66 133.5t96.5 86t112 48t117.5 14q58 0 112.5 -13t109.5 -46t95 -83.5t65.5 -132.5t25.5 -186v-28h-705q15 -330 304 -330q115 0 187 52t91 149h121q-12 -86 -54.5 -149t-103.5 -96t-122.5 -47.5t-125.5 -14.5q-85 0 -158 26t-132 79t-93 144 t-34 211zM276 516h578q-34 283 -291 283q-127 0 -200.5 -71t-86.5 -212zM283 1004l182 391h151l183 -391h-82l-176 251l-176 -251h-82z" />
<glyph unicode="&#xeb;" d="M154 440q0 102 25 183.5t66 133.5t96.5 86t112 48t117.5 14q58 0 112.5 -13t109.5 -46t95 -83.5t65.5 -132.5t25.5 -186v-28h-705q15 -330 304 -330q115 0 187 52t91 149h121q-12 -86 -54.5 -149t-103.5 -96t-122.5 -47.5t-125.5 -14.5q-85 0 -158 26t-132 79t-93 144 t-34 211zM254 1128v166h166v-166h-166zM276 516h578q-34 283 -291 283q-127 0 -200.5 -71t-86.5 -212zM666 1128v166h165v-166h-165z" />
<glyph unicode="&#xec;" d="M190 0v111h328v663h-328v111h449v-774h301v-111h-750zM356 1395h181l141 -391h-80z" />
<glyph unicode="&#xed;" d="M190 0v111h328v663h-328v111h449v-774h301v-111h-750zM483 1004l142 391h180l-242 -391h-80z" />
<glyph unicode="&#xee;" d="M190 0v111h328v663h-328v111h449v-774h301v-111h-750zM322 1004l182 391h151l183 -391h-82l-176 251l-177 -251h-81z" />
<glyph unicode="&#xef;" d="M190 0v111h328v663h-328v111h449v-774h301v-111h-750zM291 1128v166h166v-166h-166zM702 1128v166h166v-166h-166z" />
<glyph unicode="&#xf0;" d="M154 401q0 87 22.5 159t61 120t91 81t109.5 47.5t119 14.5q121 0 197 -53l-115 242l-213 -51v112l166 39l-86 182h127l69 -155l207 51v-113l-159 -39l129 -282q94 -203 94 -371q0 -100 -34.5 -179t-93 -127.5t-131 -73.5t-153.5 -25q-80 0 -150.5 24t-129 73t-93 132 t-34.5 192zM276 401q0 -65 14.5 -118t46 -98.5t89 -71t137.5 -25.5t137.5 25.5t89 71t46 98.5t14.5 118t-14.5 118.5t-46 99t-89 71t-137.5 25.5t-137.5 -25.5t-89 -71t-46 -99t-14.5 -118.5z" />
<glyph unicode="&#xf1;" d="M209 1096q37 99 94.5 166t130.5 67q35 0 72 -21t62.5 -45.5t56.5 -45.5t55 -21q82 0 149 133l66 -31q-37 -99 -94.5 -166t-130.5 -67q-35 0 -72 21t-62.5 45.5t-56.5 45.5t-55 21q-43 0 -82 -37.5t-68 -95.5zM223 0v885h96v-113q91 133 289 133q297 0 297 -362v-543h-121 v512q0 148 -43 216.5t-161 68.5q-151 0 -236 -97v-700h-121z" />
<glyph unicode="&#xf2;" d="M154 440q0 105 24.5 187t64 133.5t94.5 85t111 46.5t117 13q62 0 117.5 -13.5t110 -47t93.5 -84.5t63 -132t24 -184q0 -105 -24.5 -187t-64.5 -133t-95 -84.5t-111 -46.5t-117 -13q-62 0 -117.5 13.5t-109.5 46.5t-93 84t-63 132t-24 184zM279 442q0 -174 72 -262 t212 -88t212.5 88t72.5 262t-72.5 262.5t-212.5 88.5t-212 -88.5t-72 -262.5zM340 1395h180l142 -391h-80z" />
<glyph unicode="&#xf3;" d="M154 440q0 105 24.5 187t64 133.5t94.5 85t111 46.5t117 13q62 0 117.5 -13.5t110 -47t93.5 -84.5t63 -132t24 -184q0 -105 -24.5 -187t-64.5 -133t-95 -84.5t-111 -46.5t-117 -13q-62 0 -117.5 13.5t-109.5 46.5t-93 84t-63 132t-24 184zM279 442q0 -174 72 -262 t212 -88t212.5 88t72.5 262t-72.5 262.5t-212.5 88.5t-212 -88.5t-72 -262.5zM467 1004l141 391h180l-241 -391h-80z" />
<glyph unicode="&#xf4;" d="M154 440q0 105 24.5 187t64 133.5t94.5 85t111 46.5t117 13q62 0 117.5 -13.5t110 -47t93.5 -84.5t63 -132t24 -184q0 -105 -24.5 -187t-64.5 -133t-95 -84.5t-111 -46.5t-117 -13q-62 0 -117.5 13.5t-109.5 46.5t-93 84t-63 132t-24 184zM279 442q0 -174 72 -262 t212 -88t212.5 88t72.5 262t-72.5 262.5t-212.5 88.5t-212 -88.5t-72 -262.5zM305 1004l182 391h152l182 -391h-82l-176 251l-176 -251h-82z" />
<glyph unicode="&#xf5;" d="M154 440q0 105 24.5 187t64 133.5t94.5 85t111 46.5t117 13q62 0 117.5 -13.5t110 -47t93.5 -84.5t63 -132t24 -184q0 -105 -24.5 -187t-64.5 -133t-95 -84.5t-111 -46.5t-117 -13q-62 0 -117.5 13.5t-109.5 46.5t-93 84t-63 132t-24 184zM209 1096q37 99 94.5 166 t130.5 67q35 0 72 -21t62.5 -45.5t56.5 -45.5t55 -21q82 0 149 133l66 -31q-37 -99 -94.5 -166t-130.5 -67q-35 0 -72 21t-62.5 45.5t-56.5 45.5t-55 21q-43 0 -82 -37.5t-68 -95.5zM279 442q0 -174 72 -262t212 -88t212.5 88t72.5 262t-72.5 262.5t-212.5 88.5t-212 -88.5 t-72 -262.5z" />
<glyph unicode="&#xf6;" d="M154 440q0 105 24.5 187t64 133.5t94.5 85t111 46.5t117 13q62 0 117.5 -13.5t110 -47t93.5 -84.5t63 -132t24 -184q0 -105 -24.5 -187t-64.5 -133t-95 -84.5t-111 -46.5t-117 -13q-62 0 -117.5 13.5t-109.5 46.5t-93 84t-63 132t-24 184zM276 1128v166h166v-166h-166z M279 442q0 -174 72 -262t212 -88t212.5 88t72.5 262t-72.5 262.5t-212.5 88.5t-212 -88.5t-72 -262.5zM688 1128v166h166v-166h-166z" />
<glyph unicode="&#xf7;" d="M195 379v133h737v-133h-737zM459 0v209h209v-209h-209zM459 676v209h209v-209h-209z" />
<glyph unicode="&#xf8;" d="M14 0l193 180q-53 106 -53 262q0 104 25 186t65 133t94.5 84.5t110 46.5t116.5 13q186 0 295 -114l101 94h151l-192 -180q53 -109 53 -263q0 -104 -25 -186t-65 -132.5t-95 -84t-110.5 -46.5t-116.5 -13q-189 0 -295 114l-100 -94h-152zM279 442q0 -102 24 -172l469 439 q-75 84 -209 84q-140 0 -212 -88.5t-72 -262.5zM354 176q69 -84 207 -84q142 0 214.5 88t72.5 262q0 95 -25 172z" />
<glyph unicode="&#xf9;" d="M223 342v543h121v-512q0 -148 43.5 -216.5t161.5 -68.5q151 0 235 96v701h121v-885h-96v113q-91 -133 -289 -133q-297 0 -297 362zM342 1395h180l142 -391h-80z" />
<glyph unicode="&#xfa;" d="M223 342v543h121v-512q0 -148 43.5 -216.5t161.5 -68.5q151 0 235 96v701h121v-885h-96v113q-91 -133 -289 -133q-297 0 -297 362zM467 1004l141 391h180l-241 -391h-80z" />
<glyph unicode="&#xfb;" d="M223 342v543h121v-512q0 -148 43.5 -216.5t161.5 -68.5q151 0 235 96v701h121v-885h-96v113q-91 -133 -289 -133q-297 0 -297 362zM305 1004l182 391h152l182 -391h-82l-176 251l-176 -251h-82z" />
<glyph unicode="&#xfc;" d="M223 342v543h121v-512q0 -148 43.5 -216.5t161.5 -68.5q151 0 235 96v701h121v-885h-96v113q-91 -133 -289 -133q-297 0 -297 362zM276 1128v166h166v-166h-166zM688 1128v166h166v-166h-166z" />
<glyph unicode="&#xfd;" d="M115 885h133l313 -768l311 768h132l-381 -895q-86 -201 -197.5 -283t-296.5 -82v111q139 0 222.5 60t142.5 200zM467 1004l141 391h180l-241 -391h-80z" />
<glyph unicode="&#xfe;" d="M223 -365v1659h121v-503q36 43 101 78.5t159 35.5q74 0 138.5 -26.5t117 -79.5t83 -144.5t30.5 -210.5q0 -118 -29.5 -208.5t-81 -145.5t-116.5 -82.5t-140 -27.5q-159 0 -262 114v-459h-121zM344 186q94 -94 236 -94q136 0 202 93.5t66 256.5t-66 257t-202 94 q-141 0 -236 -95v-512z" />
<glyph unicode="&#xff;" d="M115 885h133l313 -768l311 768h132l-381 -895q-86 -201 -197.5 -283t-296.5 -82v111q139 0 222.5 60t142.5 200zM276 1128v166h166v-166h-166zM688 1128v166h166v-166h-166z" />
<glyph unicode="&#x152;" d="M45 567q0 145 21 252.5t66.5 186.5t122.5 119t185 40q80 0 152 -22h498v-113h-377v-389h295v-113h-295v-415h377v-113h-498q-75 -23 -150 -23q-110 0 -188 40t-123 118.5t-65.5 184t-20.5 247.5zM176 571q0 -67 3 -118.5t12.5 -111t29 -101.5t49 -78.5t76.5 -55 t109 -18.5t129 23v921q-67 23 -129 23q-53 0 -95.5 -15t-71 -39t-49.5 -62.5t-33 -77.5t-19 -91.5t-9 -97t-2 -101.5z" />
<glyph unicode="&#x153;" d="M31 440q0 236 82 350.5t211 114.5q170 0 241 -188q71 188 248 188q130 0 206.5 -119t76.5 -346v-6h-473q3 -165 54 -257.5t140 -92.5q74 0 118 60t44 143h115q-5 -131 -79.5 -219t-195.5 -88q-83 0 -148 48t-106 134q-38 -89 -100.5 -135.5t-142.5 -46.5 q-130 0 -210.5 113t-80.5 347zM145 442q0 -167 46.5 -262.5t136.5 -95.5q89 0 134.5 95.5t45.5 262.5t-45.5 263t-134.5 96q-90 0 -136.5 -96t-46.5 -263zM627 535h354q-27 266 -178 266q-149 0 -176 -266z" />
<glyph unicode="&#x178;" d="M47 1143h150l184 -279l186 -295l185 295l180 279h149l-452 -684v-459h-129v463zM276 1348v165h166v-165h-166zM688 1348v165h166v-165h-166z" />
<glyph unicode="&#x2c6;" d="M305 1004l182 391h152l182 -391h-82l-176 251l-176 -251h-82z" />
<glyph unicode="&#x2dc;" d="M221 1096q37 99 94.5 166t130.5 67q35 0 72 -21t62.5 -45.5t56.5 -45.5t55 -21q43 0 82 37.5t68 95.5l65 -31q-37 -99 -94.5 -166t-130.5 -67q-35 0 -72 21t-62.5 45.5t-56.5 45.5t-55 21q-82 0 -149 -133z" />
<glyph unicode="&#x2000;" horiz-adv-x="854" />
<glyph unicode="&#x2001;" horiz-adv-x="1708" />
<glyph unicode="&#x2002;" horiz-adv-x="854" />
<glyph unicode="&#x2003;" horiz-adv-x="1708" />
<glyph unicode="&#x2004;" horiz-adv-x="569" />
<glyph unicode="&#x2005;" horiz-adv-x="427" />
<glyph unicode="&#x2006;" horiz-adv-x="284" />
<glyph unicode="&#x2007;" horiz-adv-x="284" />
<glyph unicode="&#x2008;" horiz-adv-x="213" />
<glyph unicode="&#x2009;" horiz-adv-x="341" />
<glyph unicode="&#x200a;" horiz-adv-x="94" />
<glyph unicode="&#x2010;" d="M266 516v113h594v-113h-594z" />
<glyph unicode="&#x2011;" d="M266 516v113h594v-113h-594z" />
<glyph unicode="&#x2012;" d="M266 516v113h594v-113h-594z" />
<glyph unicode="&#x2013;" d="M184 389v111h758v-111h-758z" />
<glyph unicode="&#x2014;" d="M31 389v111h1065v-111h-1065z" />
<glyph unicode="&#x2018;" d="M403 725l277 479q23 43 53 43q37 0 37 -35q0 -13 -6 -34l-137 -453h-224z" />
<glyph unicode="&#x2019;" d="M356 737q0 14 6 35l138 453h223l-277 -480q-23 -43 -53 -43q-37 0 -37 35z" />
<glyph unicode="&#x201a;" d="M383 -270q0 19 4 39l74 440h215l-191 -479q-10 -25 -22.5 -34t-32.5 -9q-47 0 -47 43z" />
<glyph unicode="&#x201c;" d="M162 725l276 479q23 43 54 43q50 0 30 -69l-137 -453h-223zM567 725l277 479q23 43 53 43q37 0 37 -35q0 -13 -6 -34l-137 -453h-224z" />
<glyph unicode="&#x201d;" d="M193 737q0 14 6 35l137 453h223l-276 -480q-23 -43 -54 -43q-36 0 -36 35zM604 772l137 453h224l-277 -480q-23 -43 -53 -43q-51 0 -31 70z" />
<glyph unicode="&#x201e;" d="M166 -270q0 19 4 39l74 440h215l-191 -479q-10 -25 -22.5 -34t-32.5 -9q-47 0 -47 43zM573 -244l76 453h215l-190 -479q-17 -43 -56 -43q-29 0 -40 16t-5 53z" />
<glyph unicode="&#x2022;" d="M322 571q0 67 21 116t57 75.5t76.5 38.5t86.5 12t86.5 -12t77 -38.5t57.5 -75.5t21 -116q0 -54 -14.5 -97t-37.5 -69.5t-55.5 -43.5t-65 -24t-69.5 -7q-46 0 -86.5 11.5t-76.5 37.5t-57 75.5t-21 116.5z" />
<glyph unicode="&#x2026;" d="M92 0v172h172v-172h-172zM477 0v172h172v-172h-172zM862 0v172h172v-172h-172z" />
<glyph unicode="&#x202f;" horiz-adv-x="341" />
<glyph unicode="&#x2039;" d="M344 475l309 356h129l-297 -356l297 -356h-129z" />
<glyph unicode="&#x203a;" d="M344 119l297 356l-297 356h129l309 -356l-309 -356h-129z" />
<glyph unicode="&#x205f;" horiz-adv-x="427" />
<glyph unicode="&#x20ac;" d="M131 569q0 291 118 443.5t347 152.5q54 0 103 -8t103 -30.5t93.5 -58.5t67 -97.5t30.5 -141.5h-129q-13 121 -79 173.5t-179 52.5q-147 0 -223.5 -74t-101.5 -205h462v-110h-477q-2 -31 -2 -95q0 -57 2 -84h477v-110h-464q24 -135 100 -211t225 -76q112 0 179.5 51 t80.5 174h129q-3 -77 -30.5 -137.5t-67.5 -96.5t-94 -59.5t-105.5 -32.5t-107.5 -9q-226 0 -341.5 150.5t-115.5 438.5z" />
<glyph unicode="&#x2122;" d="M74 1053v90h403v-90h-153v-502h-95v502h-155zM545 551v592h131l84 -318l86 318h131v-592h-92v424l-82 -268h-82l-84 268v-424h-92z" />
<glyph unicode="&#x25fc;" horiz-adv-x="880" d="M0 0v881h881v-881h-881z" />
<glyph unicode="&#xfb01;" d="M125 774v111h119q0 199 98.5 304t325.5 105v-110q-158 0 -230.5 -64.5t-72.5 -234.5h253v-111h-253v-774h-121v774h-119zM745 1128v166h166v-166h-166zM770 0v885h121v-885h-121z" />
<glyph unicode="&#xfb02;" d="M125 774v111h119q0 199 98.5 304t325.5 105v-110q-158 0 -230.5 -64.5t-72.5 -234.5h253v-111h-253v-774h-121v774h-119zM770 0v1294h121v-1294h-121z" />
</font>
</defs>
</svg>
